M48
;DRILL file {Pcbnew (2013-07-07 BZR 4022)-stable} date 11/8/2017 12:14:30 PM
;FORMAT={-:-/ absolute / inch / decimal}
FMAT,2
INCH,TZ
T1C0.020
T2C0.031
T3C0.032
T4C0.040
T5C0.125
T6C0.625
%
G90
G05
M72
T1
X8.15Y-5.7
X8.15Y-5.75
X8.15Y-5.8
X8.15Y-6.3
X8.15Y-6.35
X8.15Y-6.4
X8.15Y-6.6
X8.15Y-6.65
X8.15Y-6.7
X8.15Y-7.2
X8.15Y-7.25
X8.15Y-7.3
X8.2Y-5.7
X8.2Y-5.75
X8.2Y-5.8
X8.2Y-6.3
X8.2Y-6.35
X8.2Y-6.4
X8.2Y-6.6
X8.2Y-6.65
X8.2Y-6.7
X8.2Y-7.2
X8.2Y-7.25
X8.2Y-7.3
X8.25Y-5.7
X8.25Y-5.75
X8.25Y-5.8
X8.25Y-6.3
X8.25Y-6.35
X8.25Y-6.4
X8.25Y-6.6
X8.25Y-6.65
X8.25Y-6.7
X8.25Y-7.2
X8.25Y-7.25
X8.25Y-7.3
X8.75Y-5.7
X8.75Y-5.75
X8.75Y-5.8
X8.75Y-6.3
X8.75Y-6.35
X8.75Y-6.4
X8.75Y-6.6
X8.75Y-6.65
X8.75Y-6.7
X8.75Y-7.2
X8.75Y-7.25
X8.75Y-7.3
X8.8Y-5.7
X8.8Y-5.75
X8.8Y-5.8
X8.8Y-6.3
X8.8Y-6.35
X8.8Y-6.4
X8.8Y-6.6
X8.8Y-6.65
X8.8Y-6.7
X8.8Y-7.2
X8.8Y-7.25
X8.8Y-7.3
X8.85Y-5.7
X8.85Y-5.75
X8.85Y-5.8
X8.85Y-6.3
X8.85Y-6.35
X8.85Y-6.4
X8.85Y-6.6
X8.85Y-6.65
X8.85Y-6.7
X8.85Y-7.2
X8.85Y-7.25
X8.85Y-7.3
X9.0394Y-6.1494
X9.0942Y-6.2362
X9.202Y-6.9
X9.2628Y-6.2457
X9.3368Y-6.4268
X9.4992Y-6.1629
X9.5038Y-6.9498
X9.543Y-6.56
X9.5553Y-6.4457
X9.8137Y-6.8
X9.8146Y-6.1125
X9.8686Y-6.5084
X10.05Y-6.5082
T2
X8.15Y-6.0105
X8.15Y-6.0895
X8.15Y-6.9105
X8.15Y-6.9895
X8.4605Y-6.4
X8.4605Y-7.3
X8.5395Y-6.4
X8.5395Y-7.3
X8.85Y-6.0105
X8.85Y-6.0895
X8.85Y-6.9105
X8.85Y-6.9895
T3
X8.69Y-5.55
X8.79Y-5.55
X8.89Y-5.55
X8.99Y-5.55
X9.05Y-7.45
X9.09Y-5.55
X9.15Y-7.45
X9.19Y-5.55
X9.25Y-7.45
X9.29Y-5.55
X9.35Y-7.45
X9.39Y-5.55
X9.45Y-7.45
X9.55Y-5.55
X9.55Y-7.45
X9.65Y-5.55
X9.75Y-5.55
X9.75Y-7.45
X9.85Y-5.55
X9.85Y-7.45
X9.95Y-5.55
X9.95Y-7.45
X10.05Y-5.55
X10.05Y-7.45
X10.15Y-5.55
X10.15Y-7.45
X10.25Y-5.55
X10.25Y-7.45
T4
X7.9Y-5.7
X7.9Y-5.8
X7.9Y-6.
X7.9Y-6.1
X7.9Y-6.3
X7.9Y-6.4
X7.9Y-6.6
X7.9Y-6.7
X7.9Y-6.9
X7.9Y-7.
X7.9Y-7.2
X7.9Y-7.3
T5
X8.3Y-7.45
X8.35Y-5.55
X10.35Y-6.15
X10.35Y-7.25
T6
X8.5Y-6.05
X8.5Y-6.95
T0
M30
