G04 (created by PCBNEW (2013-07-07 BZR 4022)-stable) date 11/8/2017 12:14:33 PM*
%MOIN*%
G04 Gerber Fmt 3.4, Leading zero omitted, Abs format*
%FSLAX34Y34*%
G01*
G70*
G90*
G04 APERTURE LIST*
%ADD10C,0.00590551*%
%ADD11C,0.625*%
%ADD12C,0.04*%
%ADD13C,0.0590551*%
%ADD14R,0.15748X0.019685*%
%ADD15R,0.06X0.08*%
%ADD16R,0.08X0.06*%
%ADD17R,0.06X0.06*%
%ADD18C,0.06*%
%ADD19O,0.06X0.1*%
%ADD20C,0.155*%
G04 APERTURE END LIST*
G54D10*
G54D11*
X85000Y-60500D03*
G54D12*
X82000Y-57500D03*
X82000Y-63500D03*
X81500Y-58000D03*
X82500Y-58000D03*
X82500Y-57000D03*
X81500Y-57000D03*
X82000Y-58000D03*
X81500Y-57500D03*
X82000Y-57000D03*
X82500Y-57500D03*
X81500Y-63000D03*
X82000Y-63000D03*
X82500Y-63000D03*
X82500Y-63500D03*
X82500Y-64000D03*
X82000Y-64000D03*
X81500Y-64000D03*
X81500Y-63500D03*
X87500Y-63000D03*
X88000Y-63000D03*
X88500Y-63000D03*
X88500Y-63500D03*
X88000Y-63500D03*
X87500Y-63500D03*
X87500Y-64000D03*
X88000Y-64000D03*
X88500Y-64000D03*
X87500Y-58000D03*
X87500Y-57500D03*
X87500Y-57000D03*
X88000Y-57000D03*
X88000Y-57500D03*
X88000Y-58000D03*
X88500Y-58000D03*
X88500Y-57500D03*
X88500Y-57000D03*
G54D13*
X84605Y-64000D03*
X85395Y-64000D03*
X81500Y-60105D03*
X81500Y-60895D03*
X88500Y-60895D03*
X88500Y-60105D03*
G54D14*
X93925Y-67500D03*
X93925Y-68000D03*
X93925Y-68500D03*
X93925Y-69000D03*
X93925Y-69500D03*
X93925Y-70000D03*
X93925Y-70500D03*
X97074Y-70500D03*
X97074Y-70000D03*
X97074Y-69500D03*
X97074Y-69000D03*
X97074Y-68500D03*
X97074Y-68000D03*
X97074Y-67500D03*
G54D15*
X94850Y-58100D03*
X96150Y-58100D03*
X92600Y-61500D03*
X91300Y-61500D03*
G54D16*
X90400Y-59000D03*
X90400Y-60300D03*
X92500Y-60300D03*
X92500Y-59000D03*
X91450Y-60300D03*
X91450Y-59000D03*
G54D15*
X92100Y-58050D03*
X90800Y-58050D03*
X94850Y-59200D03*
X96150Y-59200D03*
G54D16*
X101650Y-70700D03*
X101650Y-72000D03*
G54D15*
X94850Y-57000D03*
X96150Y-57000D03*
G54D16*
X98500Y-64500D03*
X98500Y-63200D03*
X99550Y-63200D03*
X99550Y-64500D03*
X100600Y-64500D03*
X100600Y-63200D03*
X101650Y-63200D03*
X101650Y-64500D03*
G54D15*
X94850Y-64500D03*
X96150Y-64500D03*
X92600Y-69000D03*
X91300Y-69000D03*
G54D16*
X91400Y-72150D03*
X91400Y-73450D03*
X94000Y-72150D03*
X94000Y-73450D03*
X92600Y-73450D03*
X92600Y-72150D03*
X90400Y-66500D03*
X90400Y-67800D03*
X92500Y-67800D03*
X92500Y-66500D03*
X91450Y-67800D03*
X91450Y-66500D03*
G54D15*
X92100Y-65550D03*
X90800Y-65550D03*
X94850Y-65600D03*
X96150Y-65600D03*
X94850Y-66700D03*
X96150Y-66700D03*
G54D16*
X98500Y-72000D03*
X98500Y-70700D03*
X99550Y-70700D03*
X99550Y-72000D03*
X100600Y-72000D03*
X100600Y-70700D03*
G54D17*
X79000Y-66000D03*
G54D18*
X79000Y-67000D03*
G54D17*
X79000Y-57000D03*
G54D18*
X79000Y-58000D03*
G54D17*
X79000Y-60000D03*
G54D18*
X79000Y-61000D03*
G54D17*
X79000Y-63000D03*
G54D18*
X79000Y-64000D03*
G54D17*
X79000Y-69000D03*
G54D18*
X79000Y-70000D03*
G54D17*
X79000Y-72000D03*
G54D18*
X79000Y-73000D03*
G54D19*
X102500Y-74500D03*
X101500Y-74500D03*
X100500Y-74500D03*
X97500Y-74500D03*
X98500Y-74500D03*
X99500Y-74500D03*
X95500Y-74500D03*
X94500Y-74500D03*
X93500Y-74500D03*
X91500Y-74500D03*
X90500Y-74500D03*
X102500Y-55500D03*
X101500Y-55500D03*
X100500Y-55500D03*
X99500Y-55500D03*
X98500Y-55500D03*
X97500Y-55500D03*
X96500Y-55500D03*
X95500Y-55500D03*
X93900Y-55500D03*
X92900Y-55500D03*
X91900Y-55500D03*
X90900Y-55500D03*
X89900Y-55500D03*
X88900Y-55500D03*
X87900Y-55500D03*
X86900Y-55500D03*
X92500Y-74500D03*
G54D20*
X103500Y-72500D03*
X103500Y-61500D03*
X83500Y-55500D03*
X83000Y-74500D03*
G54D11*
X85000Y-69500D03*
G54D12*
X82000Y-66500D03*
X82000Y-72500D03*
X81500Y-67000D03*
X82500Y-67000D03*
X82500Y-66000D03*
X81500Y-66000D03*
X82000Y-67000D03*
X81500Y-66500D03*
X82000Y-66000D03*
X82500Y-66500D03*
X81500Y-72000D03*
X82000Y-72000D03*
X82500Y-72000D03*
X82500Y-72500D03*
X82500Y-73000D03*
X82000Y-73000D03*
X81500Y-73000D03*
X81500Y-72500D03*
X87500Y-72000D03*
X88000Y-72000D03*
X88500Y-72000D03*
X88500Y-72500D03*
X88000Y-72500D03*
X87500Y-72500D03*
X87500Y-73000D03*
X88000Y-73000D03*
X88500Y-73000D03*
X87500Y-67000D03*
X87500Y-66500D03*
X87500Y-66000D03*
X88000Y-66000D03*
X88000Y-66500D03*
X88000Y-67000D03*
X88500Y-67000D03*
X88500Y-66500D03*
X88500Y-66000D03*
G54D13*
X84605Y-73000D03*
X85395Y-73000D03*
X81500Y-69105D03*
X81500Y-69895D03*
X88500Y-69895D03*
X88500Y-69105D03*
G54D14*
X93925Y-60000D03*
X93925Y-60500D03*
X93925Y-61000D03*
X93925Y-61500D03*
X93925Y-62000D03*
X93925Y-62500D03*
X93925Y-63000D03*
X97074Y-63000D03*
X97074Y-62500D03*
X97074Y-62000D03*
X97074Y-61500D03*
X97074Y-61000D03*
X97074Y-60500D03*
X97074Y-60000D03*
G54D16*
X92000Y-64250D03*
X92000Y-62950D03*
X90900Y-64250D03*
X90900Y-62950D03*
M02*
