G04 (created by PCBNEW (2013-07-07 BZR 4022)-stable) date 11/8/2017 12:14:33 PM*
%MOIN*%
G04 Gerber Fmt 3.4, Leading zero omitted, Abs format*
%FSLAX34Y34*%
G01*
G70*
G90*
G04 APERTURE LIST*
%ADD10C,0.00590551*%
%ADD11C,0.625*%
%ADD12C,0.04*%
%ADD13C,0.0590551*%
%ADD14R,0.15748X0.019685*%
%ADD15R,0.06X0.08*%
%ADD16R,0.08X0.06*%
%ADD17R,0.06X0.06*%
%ADD18C,0.06*%
%ADD19O,0.06X0.1*%
%ADD20C,0.155*%
%ADD21C,0.035*%
%ADD22C,0.01*%
G04 APERTURE END LIST*
G54D10*
G54D11*
X85000Y-60500D03*
G54D12*
X82000Y-57500D03*
X82000Y-63500D03*
X81500Y-58000D03*
X82500Y-58000D03*
X82500Y-57000D03*
X81500Y-57000D03*
X82000Y-58000D03*
X81500Y-57500D03*
X82000Y-57000D03*
X82500Y-57500D03*
X81500Y-63000D03*
X82000Y-63000D03*
X82500Y-63000D03*
X82500Y-63500D03*
X82500Y-64000D03*
X82000Y-64000D03*
X81500Y-64000D03*
X81500Y-63500D03*
X87500Y-63000D03*
X88000Y-63000D03*
X88500Y-63000D03*
X88500Y-63500D03*
X88000Y-63500D03*
X87500Y-63500D03*
X87500Y-64000D03*
X88000Y-64000D03*
X88500Y-64000D03*
X87500Y-58000D03*
X87500Y-57500D03*
X87500Y-57000D03*
X88000Y-57000D03*
X88000Y-57500D03*
X88000Y-58000D03*
X88500Y-58000D03*
X88500Y-57500D03*
X88500Y-57000D03*
G54D13*
X84605Y-64000D03*
X85395Y-64000D03*
X81500Y-60105D03*
X81500Y-60895D03*
X88500Y-60895D03*
X88500Y-60105D03*
G54D14*
X93925Y-67500D03*
X93925Y-68000D03*
X93925Y-68500D03*
X93925Y-69000D03*
X93925Y-69500D03*
X93925Y-70000D03*
X93925Y-70500D03*
X97074Y-70500D03*
X97074Y-70000D03*
X97074Y-69500D03*
X97074Y-69000D03*
X97074Y-68500D03*
X97074Y-68000D03*
X97074Y-67500D03*
G54D15*
X94850Y-58100D03*
X96150Y-58100D03*
X92600Y-61500D03*
X91300Y-61500D03*
G54D16*
X90400Y-59000D03*
X90400Y-60300D03*
X92500Y-60300D03*
X92500Y-59000D03*
X91450Y-60300D03*
X91450Y-59000D03*
G54D15*
X92100Y-58050D03*
X90800Y-58050D03*
X94850Y-59200D03*
X96150Y-59200D03*
G54D16*
X101650Y-70700D03*
X101650Y-72000D03*
G54D15*
X94850Y-57000D03*
X96150Y-57000D03*
G54D16*
X98500Y-64500D03*
X98500Y-63200D03*
X99550Y-63200D03*
X99550Y-64500D03*
X100600Y-64500D03*
X100600Y-63200D03*
X101650Y-63200D03*
X101650Y-64500D03*
G54D15*
X94850Y-64500D03*
X96150Y-64500D03*
X92600Y-69000D03*
X91300Y-69000D03*
G54D16*
X91400Y-72150D03*
X91400Y-73450D03*
X94000Y-72150D03*
X94000Y-73450D03*
X92600Y-73450D03*
X92600Y-72150D03*
X90400Y-66500D03*
X90400Y-67800D03*
X92500Y-67800D03*
X92500Y-66500D03*
X91450Y-67800D03*
X91450Y-66500D03*
G54D15*
X92100Y-65550D03*
X90800Y-65550D03*
X94850Y-65600D03*
X96150Y-65600D03*
X94850Y-66700D03*
X96150Y-66700D03*
G54D16*
X98500Y-72000D03*
X98500Y-70700D03*
X99550Y-70700D03*
X99550Y-72000D03*
X100600Y-72000D03*
X100600Y-70700D03*
G54D17*
X79000Y-66000D03*
G54D18*
X79000Y-67000D03*
G54D17*
X79000Y-57000D03*
G54D18*
X79000Y-58000D03*
G54D17*
X79000Y-60000D03*
G54D18*
X79000Y-61000D03*
G54D17*
X79000Y-63000D03*
G54D18*
X79000Y-64000D03*
G54D17*
X79000Y-69000D03*
G54D18*
X79000Y-70000D03*
G54D17*
X79000Y-72000D03*
G54D18*
X79000Y-73000D03*
G54D19*
X102500Y-74500D03*
X101500Y-74500D03*
X100500Y-74500D03*
X97500Y-74500D03*
X98500Y-74500D03*
X99500Y-74500D03*
X95500Y-74500D03*
X94500Y-74500D03*
X93500Y-74500D03*
X91500Y-74500D03*
X90500Y-74500D03*
X102500Y-55500D03*
X101500Y-55500D03*
X100500Y-55500D03*
X99500Y-55500D03*
X98500Y-55500D03*
X97500Y-55500D03*
X96500Y-55500D03*
X95500Y-55500D03*
X93900Y-55500D03*
X92900Y-55500D03*
X91900Y-55500D03*
X90900Y-55500D03*
X89900Y-55500D03*
X88900Y-55500D03*
X87900Y-55500D03*
X86900Y-55500D03*
X92500Y-74500D03*
G54D20*
X103500Y-72500D03*
X103500Y-61500D03*
X83500Y-55500D03*
X83000Y-74500D03*
G54D11*
X85000Y-69500D03*
G54D12*
X82000Y-66500D03*
X82000Y-72500D03*
X81500Y-67000D03*
X82500Y-67000D03*
X82500Y-66000D03*
X81500Y-66000D03*
X82000Y-67000D03*
X81500Y-66500D03*
X82000Y-66000D03*
X82500Y-66500D03*
X81500Y-72000D03*
X82000Y-72000D03*
X82500Y-72000D03*
X82500Y-72500D03*
X82500Y-73000D03*
X82000Y-73000D03*
X81500Y-73000D03*
X81500Y-72500D03*
X87500Y-72000D03*
X88000Y-72000D03*
X88500Y-72000D03*
X88500Y-72500D03*
X88000Y-72500D03*
X87500Y-72500D03*
X87500Y-73000D03*
X88000Y-73000D03*
X88500Y-73000D03*
X87500Y-67000D03*
X87500Y-66500D03*
X87500Y-66000D03*
X88000Y-66000D03*
X88000Y-66500D03*
X88000Y-67000D03*
X88500Y-67000D03*
X88500Y-66500D03*
X88500Y-66000D03*
G54D13*
X84605Y-73000D03*
X85395Y-73000D03*
X81500Y-69105D03*
X81500Y-69895D03*
X88500Y-69895D03*
X88500Y-69105D03*
G54D14*
X93925Y-60000D03*
X93925Y-60500D03*
X93925Y-61000D03*
X93925Y-61500D03*
X93925Y-62000D03*
X93925Y-62500D03*
X93925Y-63000D03*
X97074Y-63000D03*
X97074Y-62500D03*
X97074Y-62000D03*
X97074Y-61500D03*
X97074Y-61000D03*
X97074Y-60500D03*
X97074Y-60000D03*
G54D16*
X92000Y-64250D03*
X92000Y-62950D03*
X90900Y-64250D03*
X90900Y-62950D03*
G54D21*
X92019Y-69000D03*
X95552Y-64456D03*
X94992Y-61629D03*
X90394Y-61493D03*
X92627Y-62456D03*
X98686Y-65083D03*
X100500Y-65082D03*
X93368Y-64267D03*
X90942Y-62362D03*
X95430Y-65600D03*
X95037Y-69498D03*
X98137Y-68000D03*
X98145Y-61124D03*
G54D22*
X92600Y-61500D02*
X93925Y-61500D01*
X92600Y-69000D02*
X92149Y-69000D01*
X92149Y-69000D02*
X92019Y-69000D01*
X94000Y-72150D02*
X94000Y-72116D01*
X91400Y-72150D02*
X92600Y-72150D01*
X92600Y-72150D02*
X93150Y-72150D01*
X95656Y-64456D02*
X95699Y-64500D01*
X95552Y-64456D02*
X95656Y-64456D01*
X96150Y-64500D02*
X95699Y-64500D01*
X93184Y-72116D02*
X94000Y-72116D01*
X93150Y-72150D02*
X93184Y-72116D01*
X93925Y-69000D02*
X92987Y-69000D01*
X92811Y-71940D02*
X92811Y-69175D01*
X92987Y-72116D02*
X92811Y-71940D01*
X93116Y-72116D02*
X92987Y-72116D01*
X93150Y-72150D02*
X93116Y-72116D01*
X92775Y-69175D02*
X92811Y-69175D01*
X92600Y-69000D02*
X92775Y-69175D01*
X92811Y-69175D02*
X92987Y-69000D01*
X93925Y-61500D02*
X94862Y-61500D01*
X94992Y-61629D02*
X94862Y-61500D01*
X94850Y-57000D02*
X95300Y-57000D01*
X95300Y-61062D02*
X94862Y-61500D01*
X95300Y-57000D02*
X95300Y-61062D01*
X93500Y-74500D02*
X93500Y-73849D01*
X94500Y-74500D02*
X94500Y-73849D01*
X93500Y-73849D02*
X94000Y-73849D01*
X91300Y-61500D02*
X90849Y-61500D01*
X97074Y-69000D02*
X96137Y-69000D01*
X94850Y-66700D02*
X95300Y-66700D01*
X94000Y-73849D02*
X94500Y-73849D01*
X101250Y-71549D02*
X101650Y-71150D01*
X96800Y-71549D02*
X101250Y-71549D01*
X94500Y-73849D02*
X96800Y-71549D01*
X97074Y-69000D02*
X98012Y-69000D01*
X101650Y-70875D02*
X101650Y-71150D01*
X101650Y-70875D02*
X101650Y-70700D01*
X101650Y-70249D02*
X99550Y-70249D01*
X101650Y-70700D02*
X101650Y-70249D01*
X99550Y-70700D02*
X99550Y-70299D01*
X99550Y-70299D02*
X99550Y-70249D01*
X99550Y-63200D02*
X99550Y-63650D01*
X98475Y-69175D02*
X98475Y-69000D01*
X99550Y-70249D02*
X98475Y-69175D01*
X98475Y-69000D02*
X98012Y-69000D01*
X97949Y-65082D02*
X97949Y-64112D01*
X98475Y-65607D02*
X97949Y-65082D01*
X98475Y-69000D02*
X98475Y-65607D01*
X90843Y-61493D02*
X90849Y-61500D01*
X90394Y-61493D02*
X90843Y-61493D01*
X97237Y-63400D02*
X97949Y-64112D01*
X90425Y-63400D02*
X97237Y-63400D01*
X90343Y-63318D02*
X90425Y-63400D01*
X90343Y-61543D02*
X90343Y-63318D01*
X90394Y-61493D02*
X90343Y-61543D01*
X101650Y-63200D02*
X101650Y-62749D01*
X98412Y-63650D02*
X99550Y-63650D01*
X97949Y-64112D02*
X98412Y-63650D01*
X99550Y-63650D02*
X101650Y-63650D01*
X101650Y-63200D02*
X101650Y-63650D01*
X100400Y-61500D02*
X97074Y-61500D01*
X101650Y-62749D02*
X100400Y-61500D01*
X95936Y-59413D02*
X96150Y-59200D01*
X95936Y-61298D02*
X95936Y-59413D01*
X96137Y-61500D02*
X95936Y-61298D01*
X97074Y-61500D02*
X96137Y-61500D01*
X95300Y-68162D02*
X95300Y-66700D01*
X96137Y-69000D02*
X95300Y-68162D01*
X94000Y-73849D02*
X94000Y-73450D01*
X90849Y-72529D02*
X90849Y-69000D01*
X91320Y-72999D02*
X90849Y-72529D01*
X94000Y-72999D02*
X91320Y-72999D01*
X94000Y-73450D02*
X94000Y-72999D01*
X91300Y-69000D02*
X90849Y-69000D01*
X93925Y-61000D02*
X94862Y-61000D01*
X94850Y-59200D02*
X94850Y-58100D01*
X94862Y-59762D02*
X94862Y-61000D01*
X94850Y-59750D02*
X94862Y-59762D01*
X94850Y-59200D02*
X94850Y-59750D01*
X93875Y-60949D02*
X93925Y-61000D01*
X92230Y-60949D02*
X93875Y-60949D01*
X92149Y-61030D02*
X92230Y-60949D01*
X92149Y-61987D02*
X92149Y-61030D01*
X92212Y-62050D02*
X92149Y-61987D01*
X93875Y-62050D02*
X92212Y-62050D01*
X93925Y-62000D02*
X93875Y-62050D01*
X91450Y-60300D02*
X90400Y-60300D01*
X91450Y-60300D02*
X92500Y-60300D01*
X92787Y-60300D02*
X92987Y-60500D01*
X92500Y-60300D02*
X92787Y-60300D01*
X93925Y-60500D02*
X92987Y-60500D01*
X92000Y-62950D02*
X92550Y-62950D01*
X92550Y-62534D02*
X92550Y-62950D01*
X92627Y-62456D02*
X92550Y-62534D01*
X97074Y-63000D02*
X97543Y-63000D01*
X97074Y-62500D02*
X98012Y-62500D01*
X98500Y-63200D02*
X98500Y-62749D01*
X98075Y-62749D02*
X98012Y-62686D01*
X98500Y-62749D02*
X98075Y-62749D01*
X97698Y-63000D02*
X98012Y-62686D01*
X97543Y-63000D02*
X97698Y-63000D01*
X98012Y-62686D02*
X98012Y-62500D01*
X99550Y-64500D02*
X98999Y-64500D01*
X98500Y-64500D02*
X98999Y-64500D01*
X98552Y-64950D02*
X98686Y-65083D01*
X98500Y-64950D02*
X98552Y-64950D01*
X98500Y-64500D02*
X98500Y-64950D01*
X101650Y-64500D02*
X101099Y-64500D01*
X100600Y-64500D02*
X101099Y-64500D01*
X100600Y-64982D02*
X100500Y-65082D01*
X100600Y-64500D02*
X100600Y-64982D01*
X92275Y-64250D02*
X92550Y-64250D01*
X92275Y-64250D02*
X92000Y-64250D01*
X92000Y-64250D02*
X90900Y-64250D01*
X92567Y-64267D02*
X93368Y-64267D01*
X92550Y-64250D02*
X92567Y-64267D01*
X90900Y-62404D02*
X90900Y-62950D01*
X90942Y-62362D02*
X90900Y-62404D01*
X97074Y-61000D02*
X96137Y-61000D01*
X96150Y-57000D02*
X96150Y-58100D01*
X96137Y-59838D02*
X96137Y-61000D01*
X96225Y-59750D02*
X96137Y-59838D01*
X96515Y-59750D02*
X96225Y-59750D01*
X96600Y-59665D02*
X96515Y-59750D01*
X96600Y-58100D02*
X96600Y-59665D01*
X96150Y-58100D02*
X96600Y-58100D01*
X94862Y-63000D02*
X94862Y-62500D01*
X93925Y-62500D02*
X94862Y-62500D01*
X93925Y-63000D02*
X94862Y-63000D01*
X95111Y-62251D02*
X94862Y-62500D01*
X100101Y-62251D02*
X95111Y-62251D01*
X100600Y-62749D02*
X100101Y-62251D01*
X100600Y-63200D02*
X100600Y-62749D01*
X91400Y-73749D02*
X91400Y-73450D01*
X91500Y-73849D02*
X91400Y-73749D01*
X91500Y-74500D02*
X91500Y-73849D01*
X92100Y-65550D02*
X92550Y-65550D01*
X94157Y-63942D02*
X92550Y-65550D01*
X96526Y-63942D02*
X94157Y-63942D01*
X97074Y-64490D02*
X96526Y-63942D01*
X97074Y-67500D02*
X97074Y-64490D01*
X96150Y-65600D02*
X96150Y-66150D01*
X97074Y-68500D02*
X96137Y-68500D01*
X96150Y-66700D02*
X96150Y-66150D01*
X96137Y-67262D02*
X96137Y-68500D01*
X96150Y-67250D02*
X96137Y-67262D01*
X96150Y-66700D02*
X96150Y-67250D01*
X91450Y-66500D02*
X92500Y-66500D01*
X92500Y-66500D02*
X92500Y-66950D01*
X93375Y-66950D02*
X93925Y-67500D01*
X92500Y-66950D02*
X93375Y-66950D01*
X95076Y-67713D02*
X94862Y-67500D01*
X95076Y-68439D02*
X95076Y-67713D01*
X96137Y-69500D02*
X95076Y-68439D01*
X97074Y-69500D02*
X96137Y-69500D01*
X93925Y-67500D02*
X94862Y-67500D01*
X93925Y-68500D02*
X94862Y-68500D01*
X94862Y-69500D02*
X94862Y-68500D01*
X93925Y-69500D02*
X94862Y-69500D01*
X94850Y-64500D02*
X94850Y-65600D01*
X94850Y-65600D02*
X95300Y-65600D01*
X95300Y-65600D02*
X95430Y-65600D01*
X95036Y-69500D02*
X95037Y-69498D01*
X94862Y-69500D02*
X95036Y-69500D01*
X79000Y-67000D02*
X81500Y-67000D01*
X82950Y-65550D02*
X82500Y-66000D01*
X90800Y-65550D02*
X82950Y-65550D01*
X82500Y-66500D02*
X82000Y-66500D01*
X81500Y-66500D02*
X82000Y-66500D01*
X82000Y-67000D02*
X82500Y-67000D01*
X81500Y-66000D02*
X82000Y-66000D01*
X82000Y-66000D02*
X82500Y-66000D01*
X82500Y-72000D02*
X82000Y-72000D01*
X81500Y-73000D02*
X82000Y-73000D01*
X81500Y-72000D02*
X81500Y-72500D01*
X97074Y-68000D02*
X98012Y-68000D01*
X98012Y-68000D02*
X98137Y-68000D01*
X79000Y-72000D02*
X81500Y-72000D01*
X79000Y-72000D02*
X79000Y-70000D01*
X92600Y-73749D02*
X92600Y-73450D01*
X92500Y-73849D02*
X92600Y-73749D01*
X92500Y-74500D02*
X92500Y-73849D01*
X93925Y-70500D02*
X94393Y-70500D01*
X93925Y-70000D02*
X94862Y-70000D01*
X100600Y-70700D02*
X100600Y-71150D01*
X95826Y-71150D02*
X94862Y-70186D01*
X100600Y-71150D02*
X95826Y-71150D01*
X94549Y-70500D02*
X94862Y-70186D01*
X94393Y-70500D02*
X94549Y-70500D01*
X94862Y-70186D02*
X94862Y-70000D01*
X101500Y-72600D02*
X101650Y-72450D01*
X101500Y-74500D02*
X101500Y-72600D01*
X101650Y-72000D02*
X101650Y-72225D01*
X101650Y-72225D02*
X101650Y-72450D01*
X101375Y-72225D02*
X101150Y-72000D01*
X101650Y-72225D02*
X101375Y-72225D01*
X100600Y-72000D02*
X101150Y-72000D01*
X90400Y-66500D02*
X88500Y-66500D01*
X88500Y-66500D02*
X88500Y-66000D01*
X88500Y-66000D02*
X88000Y-66000D01*
X88000Y-66000D02*
X87500Y-66000D01*
X88500Y-66500D02*
X88000Y-66500D01*
X88000Y-66500D02*
X87500Y-66500D01*
X88500Y-67000D02*
X88000Y-67000D01*
X88000Y-67000D02*
X87500Y-67000D01*
X88500Y-73000D02*
X88000Y-73000D01*
X88000Y-73000D02*
X87500Y-73000D01*
X79000Y-66000D02*
X79000Y-66450D01*
X78887Y-66450D02*
X79000Y-66450D01*
X78549Y-66787D02*
X78887Y-66450D01*
X78549Y-72549D02*
X78549Y-66787D01*
X79000Y-73000D02*
X78549Y-72549D01*
X88500Y-69895D02*
X88500Y-72000D01*
X91450Y-67800D02*
X90400Y-67800D01*
X91450Y-67800D02*
X92500Y-67800D01*
X92787Y-67800D02*
X92987Y-68000D01*
X92500Y-67800D02*
X92787Y-67800D01*
X93925Y-68000D02*
X92987Y-68000D01*
X99500Y-72500D02*
X99550Y-72450D01*
X99500Y-74500D02*
X99500Y-72500D01*
X99550Y-72000D02*
X99550Y-72225D01*
X99550Y-72225D02*
X99550Y-72450D01*
X99275Y-72225D02*
X99050Y-72000D01*
X99550Y-72225D02*
X99275Y-72225D01*
X98500Y-72000D02*
X99050Y-72000D01*
X98212Y-70700D02*
X98012Y-70500D01*
X98500Y-70700D02*
X98212Y-70700D01*
X97074Y-70500D02*
X98012Y-70500D01*
X98012Y-70000D02*
X98012Y-70500D01*
X97074Y-70000D02*
X98012Y-70000D01*
X97074Y-70500D02*
X98012Y-70500D01*
X92500Y-59000D02*
X93050Y-59000D01*
X91450Y-59000D02*
X91450Y-59225D01*
X92500Y-59000D02*
X91949Y-59000D01*
X91724Y-59225D02*
X91949Y-59000D01*
X91450Y-59225D02*
X91724Y-59225D01*
X93050Y-59124D02*
X93050Y-59000D01*
X93925Y-60000D02*
X93050Y-59124D01*
X95670Y-61533D02*
X96137Y-62000D01*
X95670Y-56900D02*
X95670Y-61533D01*
X95219Y-56449D02*
X95670Y-56900D01*
X94466Y-56449D02*
X95219Y-56449D01*
X93050Y-57865D02*
X94466Y-56449D01*
X93050Y-59000D02*
X93050Y-57865D01*
X97074Y-62000D02*
X96137Y-62000D01*
X94350Y-56249D02*
X92550Y-58050D01*
X96312Y-56249D02*
X94350Y-56249D01*
X97074Y-57012D02*
X96312Y-56249D01*
X97074Y-60000D02*
X97074Y-57012D01*
X92100Y-58050D02*
X92550Y-58050D01*
X79000Y-63000D02*
X81500Y-63000D01*
X82500Y-63000D02*
X82000Y-63000D01*
X81500Y-64000D02*
X82000Y-64000D01*
X98012Y-60991D02*
X98145Y-61124D01*
X98012Y-60500D02*
X98012Y-60991D01*
X97074Y-60500D02*
X98012Y-60500D01*
X79000Y-58000D02*
X81500Y-58000D01*
X81500Y-57000D02*
X82000Y-57000D01*
X82000Y-57000D02*
X82500Y-57000D01*
X88943Y-56643D02*
X90349Y-58050D01*
X82856Y-56643D02*
X88943Y-56643D01*
X82500Y-57000D02*
X82856Y-56643D01*
X90800Y-58050D02*
X90349Y-58050D01*
X88500Y-57000D02*
X88000Y-57000D01*
X88000Y-57000D02*
X87500Y-57000D01*
X88500Y-57500D02*
X88000Y-57500D01*
X88000Y-57500D02*
X87500Y-57500D01*
X88500Y-58000D02*
X88000Y-58000D01*
X88000Y-58000D02*
X87500Y-58000D01*
X88500Y-64000D02*
X88000Y-64000D01*
X88000Y-64000D02*
X87500Y-64000D01*
X87500Y-63500D02*
X88000Y-63500D01*
X88000Y-63500D02*
X88500Y-63500D01*
X88000Y-63000D02*
X87500Y-63000D01*
X89500Y-59105D02*
X88500Y-60105D01*
X89500Y-59000D02*
X89500Y-59105D01*
X90400Y-59000D02*
X89500Y-59000D01*
X89500Y-59000D02*
X88500Y-58000D01*
X87036Y-64463D02*
X87500Y-64000D01*
X79463Y-64463D02*
X87036Y-64463D01*
X79000Y-64000D02*
X79463Y-64463D01*
G54D10*
G36*
X96207Y-59250D02*
X96200Y-59250D01*
X96200Y-59257D01*
X96100Y-59257D01*
X96100Y-59250D01*
X96092Y-59250D01*
X96092Y-59150D01*
X96100Y-59150D01*
X96100Y-59142D01*
X96200Y-59142D01*
X96200Y-59150D01*
X96207Y-59150D01*
X96207Y-59250D01*
X96207Y-59250D01*
G37*
G54D22*
X96207Y-59250D02*
X96200Y-59250D01*
X96200Y-59257D01*
X96100Y-59257D01*
X96100Y-59250D01*
X96092Y-59250D01*
X96092Y-59150D01*
X96100Y-59150D01*
X96100Y-59142D01*
X96200Y-59142D01*
X96200Y-59150D01*
X96207Y-59150D01*
X96207Y-59250D01*
G54D10*
G36*
X104450Y-75450D02*
X103000Y-75450D01*
X103000Y-74713D01*
X103000Y-74286D01*
X102961Y-74094D01*
X102853Y-73932D01*
X102691Y-73824D01*
X102500Y-73786D01*
X102308Y-73824D01*
X102300Y-73830D01*
X102300Y-71049D01*
X102300Y-70350D01*
X102300Y-63549D01*
X102300Y-62850D01*
X102262Y-62758D01*
X102191Y-62688D01*
X102099Y-62650D01*
X102000Y-62649D01*
X101762Y-62650D01*
X101700Y-62712D01*
X101700Y-63150D01*
X102237Y-63150D01*
X102300Y-63087D01*
X102300Y-62850D01*
X102300Y-63549D01*
X102300Y-63312D01*
X102237Y-63250D01*
X101700Y-63250D01*
X101700Y-63687D01*
X101762Y-63750D01*
X102000Y-63750D01*
X102099Y-63749D01*
X102191Y-63711D01*
X102262Y-63641D01*
X102300Y-63549D01*
X102300Y-70350D01*
X102262Y-70258D01*
X102250Y-70246D01*
X102250Y-64760D01*
X102250Y-64160D01*
X102219Y-64086D01*
X102163Y-64030D01*
X102089Y-64000D01*
X102010Y-63999D01*
X101210Y-63999D01*
X101136Y-64030D01*
X101125Y-64042D01*
X101113Y-64030D01*
X101039Y-64000D01*
X100960Y-63999D01*
X100160Y-63999D01*
X100086Y-64030D01*
X100075Y-64042D01*
X100063Y-64030D01*
X99989Y-64000D01*
X99910Y-63999D01*
X99110Y-63999D01*
X99036Y-64030D01*
X99025Y-64042D01*
X99013Y-64030D01*
X98939Y-64000D01*
X98860Y-63999D01*
X98060Y-63999D01*
X97986Y-64030D01*
X97930Y-64086D01*
X97900Y-64160D01*
X97899Y-64239D01*
X97899Y-64839D01*
X97930Y-64913D01*
X97986Y-64969D01*
X98060Y-64999D01*
X98139Y-65000D01*
X98259Y-65000D01*
X98269Y-65045D01*
X98311Y-65109D01*
X98311Y-65157D01*
X98368Y-65295D01*
X98473Y-65401D01*
X98611Y-65458D01*
X98760Y-65458D01*
X98898Y-65401D01*
X99004Y-65296D01*
X99061Y-65158D01*
X99061Y-65009D01*
X99046Y-64973D01*
X99110Y-64999D01*
X99189Y-65000D01*
X99989Y-65000D01*
X100063Y-64969D01*
X100074Y-64957D01*
X100086Y-64969D01*
X100132Y-64988D01*
X100125Y-65007D01*
X100124Y-65156D01*
X100181Y-65294D01*
X100287Y-65399D01*
X100425Y-65457D01*
X100574Y-65457D01*
X100712Y-65400D01*
X100817Y-65294D01*
X100874Y-65157D01*
X100875Y-65007D01*
X100871Y-65000D01*
X101039Y-65000D01*
X101113Y-64969D01*
X101124Y-64957D01*
X101136Y-64969D01*
X101210Y-64999D01*
X101289Y-65000D01*
X102089Y-65000D01*
X102163Y-64969D01*
X102219Y-64913D01*
X102249Y-64839D01*
X102250Y-64760D01*
X102250Y-70246D01*
X102191Y-70188D01*
X102099Y-70150D01*
X102000Y-70149D01*
X101762Y-70150D01*
X101700Y-70212D01*
X101700Y-70650D01*
X102237Y-70650D01*
X102300Y-70587D01*
X102300Y-70350D01*
X102300Y-71049D01*
X102300Y-70812D01*
X102237Y-70750D01*
X101700Y-70750D01*
X101700Y-71187D01*
X101762Y-71250D01*
X102000Y-71250D01*
X102099Y-71249D01*
X102191Y-71211D01*
X102262Y-71141D01*
X102300Y-71049D01*
X102300Y-73830D01*
X102146Y-73932D01*
X102038Y-74094D01*
X102000Y-74286D01*
X101961Y-74094D01*
X101853Y-73932D01*
X101750Y-73863D01*
X101750Y-72703D01*
X101826Y-72626D01*
X101880Y-72545D01*
X101880Y-72545D01*
X101890Y-72500D01*
X102089Y-72500D01*
X102163Y-72469D01*
X102219Y-72413D01*
X102249Y-72339D01*
X102250Y-72260D01*
X102250Y-71660D01*
X102219Y-71586D01*
X102163Y-71530D01*
X102089Y-71500D01*
X102010Y-71499D01*
X101600Y-71499D01*
X101600Y-71187D01*
X101600Y-70750D01*
X101592Y-70750D01*
X101592Y-70650D01*
X101600Y-70650D01*
X101600Y-70212D01*
X101537Y-70150D01*
X101299Y-70149D01*
X101200Y-70150D01*
X101108Y-70188D01*
X101079Y-70216D01*
X101039Y-70200D01*
X100960Y-70199D01*
X100160Y-70199D01*
X100120Y-70216D01*
X100091Y-70188D01*
X99999Y-70150D01*
X99900Y-70149D01*
X99662Y-70150D01*
X99600Y-70212D01*
X99600Y-70650D01*
X99607Y-70650D01*
X99607Y-70750D01*
X99600Y-70750D01*
X99600Y-70757D01*
X99500Y-70757D01*
X99500Y-70750D01*
X99492Y-70750D01*
X99492Y-70650D01*
X99500Y-70650D01*
X99500Y-70212D01*
X99437Y-70150D01*
X99199Y-70149D01*
X99100Y-70150D01*
X99008Y-70188D01*
X98979Y-70216D01*
X98939Y-70200D01*
X98860Y-70199D01*
X98262Y-70199D01*
X98262Y-70000D01*
X98243Y-69904D01*
X98189Y-69823D01*
X98107Y-69769D01*
X98012Y-69750D01*
X97993Y-69750D01*
X97993Y-69749D01*
X98031Y-69711D01*
X98062Y-69638D01*
X98062Y-69558D01*
X98062Y-69361D01*
X98031Y-69288D01*
X98028Y-69285D01*
X98074Y-69240D01*
X98112Y-69148D01*
X98112Y-69111D01*
X98049Y-69049D01*
X97124Y-69049D01*
X97124Y-69057D01*
X97024Y-69057D01*
X97024Y-69049D01*
X96099Y-69049D01*
X96069Y-69079D01*
X95326Y-68335D01*
X95326Y-67713D01*
X95307Y-67618D01*
X95253Y-67537D01*
X95066Y-67350D01*
X95199Y-67350D01*
X95291Y-67312D01*
X95361Y-67241D01*
X95399Y-67149D01*
X95400Y-67050D01*
X95400Y-66812D01*
X95337Y-66750D01*
X94900Y-66750D01*
X94900Y-66757D01*
X94800Y-66757D01*
X94800Y-66750D01*
X94362Y-66750D01*
X94300Y-66812D01*
X94299Y-67050D01*
X94300Y-67149D01*
X94321Y-67201D01*
X93980Y-67201D01*
X93552Y-66773D01*
X93470Y-66719D01*
X93375Y-66700D01*
X93100Y-66700D01*
X93100Y-66160D01*
X93069Y-66086D01*
X93013Y-66030D01*
X92939Y-66000D01*
X92860Y-65999D01*
X92595Y-65999D01*
X92599Y-65989D01*
X92600Y-65910D01*
X92600Y-65790D01*
X92645Y-65780D01*
X92726Y-65726D01*
X94261Y-64192D01*
X94349Y-64192D01*
X94349Y-64939D01*
X94380Y-65013D01*
X94417Y-65050D01*
X94380Y-65086D01*
X94350Y-65160D01*
X94349Y-65239D01*
X94349Y-66039D01*
X94380Y-66113D01*
X94381Y-66114D01*
X94338Y-66158D01*
X94300Y-66250D01*
X94299Y-66349D01*
X94300Y-66587D01*
X94362Y-66650D01*
X94800Y-66650D01*
X94800Y-66642D01*
X94900Y-66642D01*
X94900Y-66650D01*
X95337Y-66650D01*
X95400Y-66587D01*
X95400Y-66349D01*
X95399Y-66250D01*
X95361Y-66158D01*
X95318Y-66114D01*
X95319Y-66113D01*
X95349Y-66039D01*
X95350Y-65972D01*
X95355Y-65974D01*
X95504Y-65975D01*
X95642Y-65918D01*
X95649Y-65910D01*
X95649Y-66039D01*
X95680Y-66113D01*
X95717Y-66150D01*
X95680Y-66186D01*
X95650Y-66260D01*
X95649Y-66339D01*
X95649Y-67139D01*
X95680Y-67213D01*
X95736Y-67269D01*
X95810Y-67299D01*
X95887Y-67300D01*
X95887Y-68500D01*
X95906Y-68595D01*
X95960Y-68676D01*
X96041Y-68730D01*
X96094Y-68741D01*
X96075Y-68759D01*
X96037Y-68851D01*
X96037Y-68888D01*
X96099Y-68950D01*
X97024Y-68950D01*
X97024Y-68942D01*
X97124Y-68942D01*
X97124Y-68950D01*
X98049Y-68950D01*
X98112Y-68888D01*
X98112Y-68851D01*
X98074Y-68759D01*
X98028Y-68714D01*
X98031Y-68711D01*
X98062Y-68638D01*
X98062Y-68558D01*
X98062Y-68374D01*
X98062Y-68374D01*
X98211Y-68375D01*
X98349Y-68318D01*
X98455Y-68212D01*
X98512Y-68074D01*
X98512Y-67925D01*
X98455Y-67787D01*
X98350Y-67682D01*
X98212Y-67625D01*
X98063Y-67624D01*
X98062Y-67625D01*
X98062Y-67558D01*
X98062Y-67361D01*
X98031Y-67288D01*
X97975Y-67232D01*
X97902Y-67201D01*
X97822Y-67201D01*
X97324Y-67201D01*
X97324Y-64490D01*
X97305Y-64394D01*
X97251Y-64313D01*
X96703Y-63765D01*
X96622Y-63711D01*
X96526Y-63692D01*
X94157Y-63692D01*
X94062Y-63711D01*
X93980Y-63765D01*
X93687Y-64058D01*
X93686Y-64055D01*
X93581Y-63950D01*
X93443Y-63892D01*
X93294Y-63892D01*
X93156Y-63949D01*
X93088Y-64017D01*
X92639Y-64017D01*
X92600Y-64009D01*
X92600Y-63910D01*
X92569Y-63836D01*
X92513Y-63780D01*
X92439Y-63750D01*
X92360Y-63749D01*
X91560Y-63749D01*
X91486Y-63780D01*
X91449Y-63817D01*
X91413Y-63780D01*
X91339Y-63750D01*
X91260Y-63749D01*
X90460Y-63749D01*
X90386Y-63780D01*
X90330Y-63836D01*
X90300Y-63910D01*
X90299Y-63989D01*
X90299Y-64589D01*
X90330Y-64663D01*
X90386Y-64719D01*
X90460Y-64749D01*
X90539Y-64750D01*
X91339Y-64750D01*
X91413Y-64719D01*
X91450Y-64682D01*
X91486Y-64719D01*
X91560Y-64749D01*
X91639Y-64750D01*
X92439Y-64750D01*
X92513Y-64719D01*
X92569Y-64663D01*
X92599Y-64589D01*
X92600Y-64517D01*
X93088Y-64517D01*
X93155Y-64585D01*
X93159Y-64587D01*
X92600Y-65146D01*
X92600Y-65110D01*
X92569Y-65036D01*
X92513Y-64980D01*
X92439Y-64950D01*
X92360Y-64949D01*
X91760Y-64949D01*
X91686Y-64980D01*
X91630Y-65036D01*
X91600Y-65110D01*
X91599Y-65189D01*
X91599Y-65989D01*
X91604Y-65999D01*
X91295Y-65999D01*
X91299Y-65989D01*
X91300Y-65910D01*
X91300Y-65110D01*
X91269Y-65036D01*
X91213Y-64980D01*
X91139Y-64950D01*
X91060Y-64949D01*
X90460Y-64949D01*
X90386Y-64980D01*
X90330Y-65036D01*
X90300Y-65110D01*
X90299Y-65189D01*
X90299Y-65300D01*
X82950Y-65300D01*
X82854Y-65319D01*
X82773Y-65373D01*
X82546Y-65600D01*
X82420Y-65599D01*
X82273Y-65660D01*
X82250Y-65684D01*
X82226Y-65661D01*
X82079Y-65600D01*
X81920Y-65599D01*
X81773Y-65660D01*
X81750Y-65684D01*
X81726Y-65661D01*
X81579Y-65600D01*
X81420Y-65599D01*
X81273Y-65660D01*
X81161Y-65773D01*
X81100Y-65920D01*
X81099Y-66079D01*
X81160Y-66226D01*
X81184Y-66249D01*
X81161Y-66273D01*
X81100Y-66420D01*
X81099Y-66579D01*
X81160Y-66726D01*
X81184Y-66749D01*
X81184Y-66750D01*
X79437Y-66750D01*
X79424Y-66717D01*
X79283Y-66576D01*
X79226Y-66552D01*
X79230Y-66545D01*
X79240Y-66500D01*
X79339Y-66500D01*
X79413Y-66469D01*
X79469Y-66413D01*
X79499Y-66339D01*
X79500Y-66260D01*
X79500Y-65660D01*
X79469Y-65586D01*
X79413Y-65530D01*
X79339Y-65500D01*
X79260Y-65499D01*
X78660Y-65499D01*
X78586Y-65530D01*
X78530Y-65586D01*
X78500Y-65660D01*
X78499Y-65739D01*
X78499Y-66339D01*
X78530Y-66413D01*
X78550Y-66433D01*
X78373Y-66610D01*
X78318Y-66692D01*
X78299Y-66787D01*
X78299Y-72549D01*
X78318Y-72645D01*
X78373Y-72726D01*
X78513Y-72867D01*
X78500Y-72900D01*
X78499Y-73099D01*
X78575Y-73282D01*
X78716Y-73423D01*
X78900Y-73499D01*
X79099Y-73500D01*
X79282Y-73424D01*
X79423Y-73283D01*
X79499Y-73099D01*
X79500Y-72900D01*
X79424Y-72717D01*
X79283Y-72576D01*
X79099Y-72500D01*
X79039Y-72500D01*
X79339Y-72500D01*
X79413Y-72469D01*
X79469Y-72413D01*
X79499Y-72339D01*
X79500Y-72260D01*
X79500Y-72250D01*
X81184Y-72250D01*
X81161Y-72273D01*
X81100Y-72420D01*
X81099Y-72579D01*
X81160Y-72726D01*
X81184Y-72749D01*
X81161Y-72773D01*
X81100Y-72920D01*
X81099Y-73079D01*
X81160Y-73226D01*
X81273Y-73338D01*
X81420Y-73399D01*
X81579Y-73400D01*
X81726Y-73339D01*
X81749Y-73315D01*
X81773Y-73338D01*
X81920Y-73399D01*
X82079Y-73400D01*
X82226Y-73339D01*
X82249Y-73315D01*
X82273Y-73338D01*
X82420Y-73399D01*
X82579Y-73400D01*
X82726Y-73339D01*
X82838Y-73226D01*
X82899Y-73079D01*
X82900Y-72920D01*
X82839Y-72773D01*
X82815Y-72750D01*
X82838Y-72726D01*
X82899Y-72579D01*
X82900Y-72420D01*
X82839Y-72273D01*
X82815Y-72250D01*
X82838Y-72226D01*
X82893Y-72095D01*
X83114Y-72317D01*
X84170Y-72755D01*
X84109Y-72901D01*
X84109Y-73098D01*
X84184Y-73280D01*
X84324Y-73419D01*
X84506Y-73495D01*
X84703Y-73495D01*
X84885Y-73420D01*
X85000Y-73305D01*
X85114Y-73419D01*
X85296Y-73495D01*
X85493Y-73495D01*
X85675Y-73420D01*
X85814Y-73280D01*
X85890Y-73098D01*
X85890Y-72901D01*
X85829Y-72754D01*
X86881Y-72320D01*
X87106Y-72095D01*
X87160Y-72226D01*
X87184Y-72249D01*
X87161Y-72273D01*
X87100Y-72420D01*
X87099Y-72579D01*
X87160Y-72726D01*
X87184Y-72749D01*
X87161Y-72773D01*
X87100Y-72920D01*
X87099Y-73079D01*
X87160Y-73226D01*
X87273Y-73338D01*
X87420Y-73399D01*
X87579Y-73400D01*
X87726Y-73339D01*
X87749Y-73315D01*
X87773Y-73338D01*
X87920Y-73399D01*
X88079Y-73400D01*
X88226Y-73339D01*
X88249Y-73315D01*
X88273Y-73338D01*
X88420Y-73399D01*
X88579Y-73400D01*
X88726Y-73339D01*
X88838Y-73226D01*
X88899Y-73079D01*
X88900Y-72920D01*
X88839Y-72773D01*
X88815Y-72750D01*
X88838Y-72726D01*
X88899Y-72579D01*
X88900Y-72420D01*
X88839Y-72273D01*
X88815Y-72250D01*
X88838Y-72226D01*
X88899Y-72079D01*
X88900Y-71920D01*
X88839Y-71773D01*
X88750Y-71684D01*
X88750Y-70327D01*
X88780Y-70315D01*
X88919Y-70175D01*
X88995Y-69993D01*
X88995Y-69796D01*
X88920Y-69614D01*
X88805Y-69499D01*
X88919Y-69385D01*
X88995Y-69203D01*
X88995Y-69006D01*
X88920Y-68824D01*
X88780Y-68685D01*
X88598Y-68609D01*
X88401Y-68609D01*
X88254Y-68670D01*
X87820Y-67618D01*
X87595Y-67393D01*
X87726Y-67339D01*
X87749Y-67315D01*
X87773Y-67338D01*
X87920Y-67399D01*
X88079Y-67400D01*
X88226Y-67339D01*
X88249Y-67315D01*
X88273Y-67338D01*
X88420Y-67399D01*
X88579Y-67400D01*
X88726Y-67339D01*
X88838Y-67226D01*
X88899Y-67079D01*
X88900Y-66920D01*
X88839Y-66773D01*
X88815Y-66750D01*
X88815Y-66750D01*
X89799Y-66750D01*
X89799Y-66839D01*
X89830Y-66913D01*
X89886Y-66969D01*
X89960Y-66999D01*
X90039Y-67000D01*
X90839Y-67000D01*
X90913Y-66969D01*
X90924Y-66957D01*
X90936Y-66969D01*
X91010Y-66999D01*
X91089Y-67000D01*
X91889Y-67000D01*
X91963Y-66969D01*
X91974Y-66957D01*
X91986Y-66969D01*
X92060Y-66999D01*
X92139Y-67000D01*
X92259Y-67000D01*
X92269Y-67045D01*
X92323Y-67126D01*
X92404Y-67181D01*
X92500Y-67200D01*
X93271Y-67200D01*
X93273Y-67201D01*
X93098Y-67201D01*
X93024Y-67231D01*
X92968Y-67288D01*
X92959Y-67308D01*
X92939Y-67300D01*
X92860Y-67299D01*
X92060Y-67299D01*
X91986Y-67330D01*
X91975Y-67342D01*
X91963Y-67330D01*
X91889Y-67300D01*
X91810Y-67299D01*
X91010Y-67299D01*
X90936Y-67330D01*
X90925Y-67342D01*
X90913Y-67330D01*
X90839Y-67300D01*
X90760Y-67299D01*
X89960Y-67299D01*
X89886Y-67330D01*
X89830Y-67386D01*
X89800Y-67460D01*
X89799Y-67539D01*
X89799Y-68139D01*
X89830Y-68213D01*
X89886Y-68269D01*
X89960Y-68299D01*
X90039Y-68300D01*
X90839Y-68300D01*
X90913Y-68269D01*
X90924Y-68257D01*
X90936Y-68269D01*
X91010Y-68299D01*
X91089Y-68300D01*
X91889Y-68300D01*
X91963Y-68269D01*
X91974Y-68257D01*
X91986Y-68269D01*
X92060Y-68299D01*
X92139Y-68300D01*
X92939Y-68300D01*
X92968Y-68288D01*
X92937Y-68361D01*
X92937Y-68400D01*
X92860Y-68399D01*
X92260Y-68399D01*
X92186Y-68430D01*
X92130Y-68486D01*
X92100Y-68560D01*
X92099Y-68627D01*
X92094Y-68625D01*
X91945Y-68624D01*
X91850Y-68664D01*
X91850Y-68649D01*
X91849Y-68550D01*
X91811Y-68458D01*
X91741Y-68387D01*
X91649Y-68349D01*
X91412Y-68350D01*
X91350Y-68412D01*
X91350Y-68950D01*
X91357Y-68950D01*
X91357Y-69050D01*
X91350Y-69050D01*
X91350Y-69587D01*
X91412Y-69650D01*
X91649Y-69650D01*
X91741Y-69612D01*
X91811Y-69541D01*
X91849Y-69449D01*
X91850Y-69350D01*
X91850Y-69335D01*
X91944Y-69374D01*
X92093Y-69375D01*
X92099Y-69372D01*
X92099Y-69439D01*
X92130Y-69513D01*
X92186Y-69569D01*
X92260Y-69599D01*
X92339Y-69600D01*
X92561Y-69600D01*
X92561Y-71649D01*
X92160Y-71649D01*
X92086Y-71680D01*
X92030Y-71736D01*
X92000Y-71810D01*
X92000Y-71810D01*
X91969Y-71736D01*
X91913Y-71680D01*
X91839Y-71650D01*
X91760Y-71649D01*
X91250Y-71649D01*
X91250Y-69587D01*
X91250Y-69050D01*
X91250Y-68950D01*
X91250Y-68412D01*
X91187Y-68350D01*
X90950Y-68349D01*
X90858Y-68387D01*
X90788Y-68458D01*
X90750Y-68550D01*
X90749Y-68649D01*
X90750Y-68887D01*
X90812Y-68950D01*
X91250Y-68950D01*
X91250Y-69050D01*
X90812Y-69050D01*
X90750Y-69112D01*
X90749Y-69350D01*
X90750Y-69449D01*
X90788Y-69541D01*
X90858Y-69612D01*
X90950Y-69650D01*
X91187Y-69650D01*
X91250Y-69587D01*
X91250Y-71649D01*
X90960Y-71649D01*
X90886Y-71680D01*
X90830Y-71736D01*
X90800Y-71810D01*
X90799Y-71889D01*
X90799Y-72489D01*
X90830Y-72563D01*
X90886Y-72619D01*
X90960Y-72649D01*
X91039Y-72650D01*
X91839Y-72650D01*
X91913Y-72619D01*
X91969Y-72563D01*
X91999Y-72489D01*
X91999Y-72489D01*
X92030Y-72563D01*
X92086Y-72619D01*
X92160Y-72649D01*
X92239Y-72650D01*
X93039Y-72650D01*
X93113Y-72619D01*
X93169Y-72563D01*
X93199Y-72489D01*
X93200Y-72410D01*
X93200Y-72390D01*
X93245Y-72380D01*
X93245Y-72380D01*
X93268Y-72366D01*
X93268Y-72366D01*
X93399Y-72366D01*
X93399Y-72489D01*
X93430Y-72563D01*
X93486Y-72619D01*
X93560Y-72649D01*
X93639Y-72650D01*
X94439Y-72650D01*
X94513Y-72619D01*
X94569Y-72563D01*
X94599Y-72489D01*
X94600Y-72410D01*
X94600Y-71810D01*
X94569Y-71736D01*
X94513Y-71680D01*
X94439Y-71650D01*
X94360Y-71649D01*
X93560Y-71649D01*
X93486Y-71680D01*
X93430Y-71736D01*
X93400Y-71810D01*
X93399Y-71866D01*
X93200Y-71866D01*
X93200Y-71810D01*
X93169Y-71736D01*
X93113Y-71680D01*
X93061Y-71659D01*
X93061Y-70783D01*
X93097Y-70798D01*
X93177Y-70798D01*
X94752Y-70798D01*
X94825Y-70768D01*
X94882Y-70711D01*
X94912Y-70638D01*
X94912Y-70589D01*
X95649Y-71326D01*
X95649Y-71326D01*
X95730Y-71381D01*
X95730Y-71381D01*
X95807Y-71396D01*
X95826Y-71400D01*
X95826Y-71400D01*
X95826Y-71400D01*
X100600Y-71400D01*
X100695Y-71381D01*
X100776Y-71326D01*
X100830Y-71245D01*
X100840Y-71200D01*
X101039Y-71200D01*
X101079Y-71183D01*
X101108Y-71211D01*
X101200Y-71249D01*
X101299Y-71250D01*
X101537Y-71250D01*
X101600Y-71187D01*
X101600Y-71499D01*
X101210Y-71499D01*
X101136Y-71530D01*
X101125Y-71542D01*
X101113Y-71530D01*
X101039Y-71500D01*
X100960Y-71499D01*
X100160Y-71499D01*
X100086Y-71530D01*
X100075Y-71542D01*
X100063Y-71530D01*
X99989Y-71500D01*
X99910Y-71499D01*
X99110Y-71499D01*
X99036Y-71530D01*
X99025Y-71542D01*
X99013Y-71530D01*
X98939Y-71500D01*
X98860Y-71499D01*
X98060Y-71499D01*
X97986Y-71530D01*
X97930Y-71586D01*
X97900Y-71660D01*
X97899Y-71739D01*
X97899Y-72339D01*
X97930Y-72413D01*
X97986Y-72469D01*
X98060Y-72499D01*
X98139Y-72500D01*
X98939Y-72500D01*
X99013Y-72469D01*
X99024Y-72457D01*
X99036Y-72469D01*
X99110Y-72499D01*
X99189Y-72500D01*
X99250Y-72500D01*
X99250Y-72500D01*
X99250Y-73863D01*
X99146Y-73932D01*
X99038Y-74094D01*
X99000Y-74286D01*
X98961Y-74094D01*
X98853Y-73932D01*
X98691Y-73824D01*
X98500Y-73786D01*
X98308Y-73824D01*
X98146Y-73932D01*
X98038Y-74094D01*
X98000Y-74286D01*
X97961Y-74094D01*
X97853Y-73932D01*
X97691Y-73824D01*
X97500Y-73786D01*
X97308Y-73824D01*
X97146Y-73932D01*
X97038Y-74094D01*
X97000Y-74286D01*
X97000Y-74713D01*
X97038Y-74905D01*
X97146Y-75067D01*
X97308Y-75175D01*
X97500Y-75213D01*
X97691Y-75175D01*
X97853Y-75067D01*
X97961Y-74905D01*
X98000Y-74713D01*
X98038Y-74905D01*
X98146Y-75067D01*
X98308Y-75175D01*
X98500Y-75213D01*
X98691Y-75175D01*
X98853Y-75067D01*
X98961Y-74905D01*
X99000Y-74713D01*
X99038Y-74905D01*
X99146Y-75067D01*
X99308Y-75175D01*
X99500Y-75213D01*
X99691Y-75175D01*
X99853Y-75067D01*
X99961Y-74905D01*
X100000Y-74713D01*
X100038Y-74905D01*
X100146Y-75067D01*
X100308Y-75175D01*
X100500Y-75213D01*
X100691Y-75175D01*
X100853Y-75067D01*
X100961Y-74905D01*
X101000Y-74713D01*
X101038Y-74905D01*
X101146Y-75067D01*
X101308Y-75175D01*
X101500Y-75213D01*
X101691Y-75175D01*
X101853Y-75067D01*
X101961Y-74905D01*
X102000Y-74713D01*
X102038Y-74905D01*
X102146Y-75067D01*
X102308Y-75175D01*
X102500Y-75213D01*
X102691Y-75175D01*
X102853Y-75067D01*
X102961Y-74905D01*
X103000Y-74713D01*
X103000Y-75450D01*
X96000Y-75450D01*
X96000Y-74713D01*
X96000Y-74286D01*
X95961Y-74094D01*
X95853Y-73932D01*
X95691Y-73824D01*
X95500Y-73786D01*
X95308Y-73824D01*
X95146Y-73932D01*
X95038Y-74094D01*
X95024Y-74163D01*
X94988Y-74043D01*
X94853Y-73875D01*
X94664Y-73772D01*
X94650Y-73769D01*
X94650Y-73100D01*
X94612Y-73008D01*
X94541Y-72938D01*
X94449Y-72900D01*
X94350Y-72899D01*
X94112Y-72900D01*
X94050Y-72962D01*
X94050Y-73400D01*
X94587Y-73400D01*
X94650Y-73337D01*
X94650Y-73100D01*
X94650Y-73769D01*
X94650Y-73769D01*
X94650Y-73562D01*
X94587Y-73500D01*
X94050Y-73500D01*
X94050Y-73937D01*
X94075Y-73963D01*
X94011Y-74043D01*
X94000Y-74080D01*
X93988Y-74043D01*
X93924Y-73963D01*
X93950Y-73937D01*
X93950Y-73500D01*
X93950Y-73400D01*
X93950Y-72962D01*
X93887Y-72900D01*
X93649Y-72899D01*
X93550Y-72900D01*
X93458Y-72938D01*
X93387Y-73008D01*
X93349Y-73100D01*
X93350Y-73337D01*
X93412Y-73400D01*
X93950Y-73400D01*
X93950Y-73500D01*
X93412Y-73500D01*
X93350Y-73562D01*
X93349Y-73769D01*
X93335Y-73772D01*
X93169Y-73863D01*
X93199Y-73789D01*
X93200Y-73710D01*
X93200Y-73110D01*
X93169Y-73036D01*
X93113Y-72980D01*
X93039Y-72950D01*
X92960Y-72949D01*
X92160Y-72949D01*
X92086Y-72980D01*
X92030Y-73036D01*
X92000Y-73110D01*
X92000Y-73110D01*
X91969Y-73036D01*
X91913Y-72980D01*
X91839Y-72950D01*
X91760Y-72949D01*
X90960Y-72949D01*
X90886Y-72980D01*
X90830Y-73036D01*
X90800Y-73110D01*
X90799Y-73189D01*
X90799Y-73789D01*
X90830Y-73863D01*
X90886Y-73919D01*
X90960Y-73949D01*
X91039Y-73950D01*
X91134Y-73950D01*
X91038Y-74094D01*
X91000Y-74286D01*
X90961Y-74094D01*
X90853Y-73932D01*
X90691Y-73824D01*
X90500Y-73786D01*
X90308Y-73824D01*
X90146Y-73932D01*
X90038Y-74094D01*
X90000Y-74286D01*
X90000Y-74713D01*
X90038Y-74905D01*
X90146Y-75067D01*
X90308Y-75175D01*
X90500Y-75213D01*
X90691Y-75175D01*
X90853Y-75067D01*
X90961Y-74905D01*
X91000Y-74713D01*
X91038Y-74905D01*
X91146Y-75067D01*
X91308Y-75175D01*
X91500Y-75213D01*
X91691Y-75175D01*
X91853Y-75067D01*
X91961Y-74905D01*
X92000Y-74713D01*
X92038Y-74905D01*
X92146Y-75067D01*
X92308Y-75175D01*
X92500Y-75213D01*
X92691Y-75175D01*
X92853Y-75067D01*
X92961Y-74905D01*
X92975Y-74836D01*
X93011Y-74956D01*
X93146Y-75124D01*
X93335Y-75227D01*
X93364Y-75233D01*
X93450Y-75184D01*
X93450Y-74550D01*
X93442Y-74550D01*
X93442Y-74450D01*
X93450Y-74450D01*
X93450Y-74442D01*
X93550Y-74442D01*
X93550Y-74450D01*
X93950Y-74450D01*
X94050Y-74450D01*
X94450Y-74450D01*
X94450Y-74442D01*
X94550Y-74442D01*
X94550Y-74450D01*
X94557Y-74450D01*
X94557Y-74550D01*
X94550Y-74550D01*
X94550Y-75184D01*
X94635Y-75233D01*
X94664Y-75227D01*
X94853Y-75124D01*
X94988Y-74956D01*
X95024Y-74836D01*
X95038Y-74905D01*
X95146Y-75067D01*
X95308Y-75175D01*
X95500Y-75213D01*
X95691Y-75175D01*
X95853Y-75067D01*
X95961Y-74905D01*
X96000Y-74713D01*
X96000Y-75450D01*
X94450Y-75450D01*
X94450Y-75184D01*
X94450Y-74550D01*
X94050Y-74550D01*
X93950Y-74550D01*
X93550Y-74550D01*
X93550Y-75184D01*
X93635Y-75233D01*
X93664Y-75227D01*
X93853Y-75124D01*
X93988Y-74956D01*
X94000Y-74919D01*
X94011Y-74956D01*
X94146Y-75124D01*
X94335Y-75227D01*
X94364Y-75233D01*
X94450Y-75184D01*
X94450Y-75450D01*
X83254Y-75450D01*
X83551Y-75327D01*
X83826Y-75053D01*
X83974Y-74694D01*
X83975Y-74306D01*
X83827Y-73948D01*
X83553Y-73673D01*
X83194Y-73525D01*
X82806Y-73524D01*
X82448Y-73672D01*
X82173Y-73946D01*
X82025Y-74305D01*
X82024Y-74693D01*
X82172Y-75051D01*
X82446Y-75326D01*
X82745Y-75450D01*
X77550Y-75450D01*
X77550Y-54550D01*
X83245Y-54550D01*
X82948Y-54672D01*
X82673Y-54946D01*
X82525Y-55305D01*
X82524Y-55693D01*
X82672Y-56051D01*
X82946Y-56326D01*
X83108Y-56393D01*
X82856Y-56393D01*
X82856Y-56393D01*
X82837Y-56397D01*
X82761Y-56412D01*
X82679Y-56466D01*
X82679Y-56466D01*
X82546Y-56600D01*
X82420Y-56599D01*
X82273Y-56660D01*
X82250Y-56684D01*
X82226Y-56661D01*
X82079Y-56600D01*
X81920Y-56599D01*
X81773Y-56660D01*
X81750Y-56684D01*
X81726Y-56661D01*
X81579Y-56600D01*
X81420Y-56599D01*
X81273Y-56660D01*
X81161Y-56773D01*
X81100Y-56920D01*
X81099Y-57079D01*
X81160Y-57226D01*
X81184Y-57249D01*
X81161Y-57273D01*
X81100Y-57420D01*
X81099Y-57579D01*
X81160Y-57726D01*
X81184Y-57749D01*
X81184Y-57750D01*
X79437Y-57750D01*
X79424Y-57717D01*
X79283Y-57576D01*
X79099Y-57500D01*
X79039Y-57500D01*
X79339Y-57500D01*
X79413Y-57469D01*
X79469Y-57413D01*
X79499Y-57339D01*
X79500Y-57260D01*
X79500Y-56660D01*
X79469Y-56586D01*
X79413Y-56530D01*
X79339Y-56500D01*
X79260Y-56499D01*
X78660Y-56499D01*
X78586Y-56530D01*
X78530Y-56586D01*
X78500Y-56660D01*
X78499Y-56739D01*
X78499Y-57339D01*
X78530Y-57413D01*
X78586Y-57469D01*
X78660Y-57499D01*
X78739Y-57500D01*
X78900Y-57500D01*
X78717Y-57575D01*
X78576Y-57716D01*
X78500Y-57900D01*
X78499Y-58099D01*
X78575Y-58282D01*
X78716Y-58423D01*
X78900Y-58499D01*
X79099Y-58500D01*
X79282Y-58424D01*
X79423Y-58283D01*
X79437Y-58250D01*
X81184Y-58250D01*
X81273Y-58338D01*
X81420Y-58399D01*
X81579Y-58400D01*
X81726Y-58339D01*
X81749Y-58315D01*
X81773Y-58338D01*
X81920Y-58399D01*
X82079Y-58400D01*
X82226Y-58339D01*
X82249Y-58315D01*
X82273Y-58338D01*
X82404Y-58393D01*
X82182Y-58614D01*
X81744Y-59670D01*
X81598Y-59609D01*
X81401Y-59609D01*
X81219Y-59684D01*
X81080Y-59824D01*
X81004Y-60006D01*
X81004Y-60203D01*
X81079Y-60385D01*
X81194Y-60500D01*
X81080Y-60614D01*
X81004Y-60796D01*
X81004Y-60993D01*
X81079Y-61175D01*
X81219Y-61314D01*
X81401Y-61390D01*
X81598Y-61390D01*
X81745Y-61329D01*
X82179Y-62381D01*
X82404Y-62606D01*
X82273Y-62660D01*
X82250Y-62684D01*
X82226Y-62661D01*
X82079Y-62600D01*
X81920Y-62599D01*
X81773Y-62660D01*
X81750Y-62684D01*
X81726Y-62661D01*
X81579Y-62600D01*
X81420Y-62599D01*
X81273Y-62660D01*
X81184Y-62750D01*
X79500Y-62750D01*
X79500Y-60900D01*
X79424Y-60717D01*
X79283Y-60576D01*
X79099Y-60500D01*
X79039Y-60500D01*
X79339Y-60500D01*
X79413Y-60469D01*
X79469Y-60413D01*
X79499Y-60339D01*
X79500Y-60260D01*
X79500Y-59660D01*
X79469Y-59586D01*
X79413Y-59530D01*
X79339Y-59500D01*
X79260Y-59499D01*
X78660Y-59499D01*
X78586Y-59530D01*
X78530Y-59586D01*
X78500Y-59660D01*
X78499Y-59739D01*
X78499Y-60339D01*
X78530Y-60413D01*
X78586Y-60469D01*
X78660Y-60499D01*
X78739Y-60500D01*
X78900Y-60500D01*
X78717Y-60575D01*
X78576Y-60716D01*
X78500Y-60900D01*
X78499Y-61099D01*
X78575Y-61282D01*
X78716Y-61423D01*
X78900Y-61499D01*
X79099Y-61500D01*
X79282Y-61424D01*
X79423Y-61283D01*
X79499Y-61099D01*
X79500Y-60900D01*
X79500Y-62750D01*
X79500Y-62750D01*
X79500Y-62660D01*
X79469Y-62586D01*
X79413Y-62530D01*
X79339Y-62500D01*
X79260Y-62499D01*
X78660Y-62499D01*
X78586Y-62530D01*
X78530Y-62586D01*
X78500Y-62660D01*
X78499Y-62739D01*
X78499Y-63339D01*
X78530Y-63413D01*
X78586Y-63469D01*
X78660Y-63499D01*
X78739Y-63500D01*
X78900Y-63500D01*
X78717Y-63575D01*
X78576Y-63716D01*
X78500Y-63900D01*
X78499Y-64099D01*
X78575Y-64282D01*
X78716Y-64423D01*
X78900Y-64499D01*
X79099Y-64500D01*
X79132Y-64486D01*
X79287Y-64640D01*
X79287Y-64640D01*
X79368Y-64694D01*
X79368Y-64694D01*
X79463Y-64713D01*
X87036Y-64713D01*
X87131Y-64694D01*
X87212Y-64640D01*
X87453Y-64399D01*
X87579Y-64400D01*
X87726Y-64339D01*
X87749Y-64315D01*
X87773Y-64338D01*
X87920Y-64399D01*
X88079Y-64400D01*
X88226Y-64339D01*
X88249Y-64315D01*
X88273Y-64338D01*
X88420Y-64399D01*
X88579Y-64400D01*
X88726Y-64339D01*
X88838Y-64226D01*
X88899Y-64079D01*
X88900Y-63920D01*
X88839Y-63773D01*
X88815Y-63750D01*
X88838Y-63726D01*
X88899Y-63579D01*
X88900Y-63420D01*
X88839Y-63273D01*
X88815Y-63250D01*
X88838Y-63226D01*
X88899Y-63079D01*
X88900Y-62920D01*
X88839Y-62773D01*
X88726Y-62661D01*
X88579Y-62600D01*
X88420Y-62599D01*
X88273Y-62660D01*
X88250Y-62684D01*
X88226Y-62661D01*
X88079Y-62600D01*
X87920Y-62599D01*
X87773Y-62660D01*
X87750Y-62684D01*
X87726Y-62661D01*
X87595Y-62606D01*
X87817Y-62385D01*
X88255Y-61329D01*
X88401Y-61390D01*
X88598Y-61390D01*
X88780Y-61315D01*
X88919Y-61175D01*
X88995Y-60993D01*
X88995Y-60796D01*
X88920Y-60614D01*
X88805Y-60499D01*
X88919Y-60385D01*
X88995Y-60203D01*
X88995Y-60006D01*
X88982Y-59975D01*
X89676Y-59281D01*
X89676Y-59281D01*
X89676Y-59281D01*
X89698Y-59250D01*
X89799Y-59250D01*
X89799Y-59339D01*
X89830Y-59413D01*
X89886Y-59469D01*
X89960Y-59499D01*
X90039Y-59500D01*
X90839Y-59500D01*
X90913Y-59469D01*
X90924Y-59457D01*
X90936Y-59469D01*
X91010Y-59499D01*
X91089Y-59500D01*
X91889Y-59500D01*
X91963Y-59469D01*
X91974Y-59457D01*
X91986Y-59469D01*
X92060Y-59499D01*
X92139Y-59500D01*
X92939Y-59500D01*
X93013Y-59469D01*
X93027Y-59455D01*
X93273Y-59701D01*
X93098Y-59701D01*
X93024Y-59731D01*
X92968Y-59788D01*
X92959Y-59808D01*
X92939Y-59800D01*
X92860Y-59799D01*
X92060Y-59799D01*
X91986Y-59830D01*
X91975Y-59842D01*
X91963Y-59830D01*
X91889Y-59800D01*
X91810Y-59799D01*
X91010Y-59799D01*
X90936Y-59830D01*
X90925Y-59842D01*
X90913Y-59830D01*
X90839Y-59800D01*
X90760Y-59799D01*
X89960Y-59799D01*
X89886Y-59830D01*
X89830Y-59886D01*
X89800Y-59960D01*
X89799Y-60039D01*
X89799Y-60639D01*
X89830Y-60713D01*
X89886Y-60769D01*
X89960Y-60799D01*
X90039Y-60800D01*
X90839Y-60800D01*
X90913Y-60769D01*
X90924Y-60757D01*
X90936Y-60769D01*
X91010Y-60799D01*
X91089Y-60800D01*
X91889Y-60800D01*
X91963Y-60769D01*
X91974Y-60757D01*
X91986Y-60769D01*
X92036Y-60790D01*
X91973Y-60853D01*
X91918Y-60935D01*
X91899Y-61030D01*
X91899Y-61987D01*
X91918Y-62083D01*
X91973Y-62164D01*
X92035Y-62226D01*
X92116Y-62281D01*
X92212Y-62300D01*
X92286Y-62300D01*
X92252Y-62381D01*
X92252Y-62449D01*
X91850Y-62449D01*
X91850Y-61850D01*
X91850Y-61149D01*
X91849Y-61050D01*
X91811Y-60958D01*
X91741Y-60887D01*
X91649Y-60849D01*
X91412Y-60850D01*
X91350Y-60912D01*
X91350Y-61450D01*
X91787Y-61450D01*
X91850Y-61387D01*
X91850Y-61149D01*
X91850Y-61850D01*
X91850Y-61612D01*
X91787Y-61550D01*
X91350Y-61550D01*
X91350Y-62087D01*
X91412Y-62150D01*
X91649Y-62150D01*
X91741Y-62112D01*
X91811Y-62041D01*
X91849Y-61949D01*
X91850Y-61850D01*
X91850Y-62449D01*
X91560Y-62449D01*
X91486Y-62480D01*
X91449Y-62517D01*
X91413Y-62480D01*
X91339Y-62450D01*
X91311Y-62450D01*
X91317Y-62437D01*
X91317Y-62288D01*
X91260Y-62150D01*
X91223Y-62113D01*
X91250Y-62087D01*
X91250Y-61550D01*
X91250Y-61450D01*
X91250Y-60912D01*
X91187Y-60850D01*
X90950Y-60849D01*
X90858Y-60887D01*
X90788Y-60958D01*
X90750Y-61050D01*
X90749Y-61149D01*
X90750Y-61387D01*
X90812Y-61450D01*
X91250Y-61450D01*
X91250Y-61550D01*
X90812Y-61550D01*
X90750Y-61612D01*
X90749Y-61850D01*
X90750Y-61949D01*
X90780Y-62023D01*
X90730Y-62044D01*
X90624Y-62149D01*
X90567Y-62287D01*
X90567Y-62436D01*
X90572Y-62449D01*
X90460Y-62449D01*
X90386Y-62480D01*
X90330Y-62536D01*
X90300Y-62610D01*
X90299Y-62689D01*
X90299Y-63289D01*
X90330Y-63363D01*
X90386Y-63419D01*
X90460Y-63449D01*
X90539Y-63450D01*
X91339Y-63450D01*
X91413Y-63419D01*
X91450Y-63382D01*
X91486Y-63419D01*
X91560Y-63449D01*
X91639Y-63450D01*
X92439Y-63450D01*
X92513Y-63419D01*
X92569Y-63363D01*
X92599Y-63289D01*
X92600Y-63210D01*
X92600Y-63190D01*
X92645Y-63180D01*
X92726Y-63126D01*
X92781Y-63045D01*
X92800Y-62950D01*
X92800Y-62791D01*
X92839Y-62774D01*
X92945Y-62669D01*
X92948Y-62662D01*
X92968Y-62711D01*
X93006Y-62750D01*
X92968Y-62788D01*
X92937Y-62861D01*
X92937Y-62941D01*
X92937Y-63138D01*
X92968Y-63211D01*
X93024Y-63267D01*
X93097Y-63298D01*
X93177Y-63298D01*
X94752Y-63298D01*
X94825Y-63268D01*
X94843Y-63250D01*
X94862Y-63250D01*
X94958Y-63230D01*
X95039Y-63176D01*
X95093Y-63095D01*
X95112Y-63000D01*
X95112Y-62603D01*
X95214Y-62501D01*
X96087Y-62501D01*
X96087Y-62638D01*
X96117Y-62711D01*
X96156Y-62750D01*
X96117Y-62788D01*
X96087Y-62861D01*
X96087Y-62941D01*
X96087Y-63138D01*
X96117Y-63211D01*
X96173Y-63267D01*
X96247Y-63298D01*
X96327Y-63298D01*
X97899Y-63298D01*
X97899Y-63539D01*
X97930Y-63613D01*
X97986Y-63669D01*
X98060Y-63699D01*
X98139Y-63700D01*
X98939Y-63700D01*
X98979Y-63683D01*
X99008Y-63711D01*
X99100Y-63749D01*
X99199Y-63750D01*
X99437Y-63750D01*
X99500Y-63687D01*
X99500Y-63250D01*
X99492Y-63250D01*
X99492Y-63150D01*
X99500Y-63150D01*
X99500Y-62712D01*
X99437Y-62650D01*
X99199Y-62649D01*
X99100Y-62650D01*
X99008Y-62688D01*
X98979Y-62716D01*
X98939Y-62700D01*
X98860Y-62699D01*
X98740Y-62699D01*
X98730Y-62654D01*
X98676Y-62573D01*
X98595Y-62518D01*
X98507Y-62501D01*
X99997Y-62501D01*
X100196Y-62699D01*
X100160Y-62699D01*
X100120Y-62716D01*
X100091Y-62688D01*
X99999Y-62650D01*
X99900Y-62649D01*
X99662Y-62650D01*
X99600Y-62712D01*
X99600Y-63150D01*
X99607Y-63150D01*
X99607Y-63250D01*
X99600Y-63250D01*
X99600Y-63687D01*
X99662Y-63750D01*
X99900Y-63750D01*
X99999Y-63749D01*
X100091Y-63711D01*
X100120Y-63683D01*
X100160Y-63699D01*
X100239Y-63700D01*
X101039Y-63700D01*
X101079Y-63683D01*
X101108Y-63711D01*
X101200Y-63749D01*
X101299Y-63750D01*
X101537Y-63750D01*
X101600Y-63687D01*
X101600Y-63250D01*
X101592Y-63250D01*
X101592Y-63150D01*
X101600Y-63150D01*
X101600Y-62712D01*
X101537Y-62650D01*
X101299Y-62649D01*
X101200Y-62650D01*
X101108Y-62688D01*
X101079Y-62716D01*
X101039Y-62700D01*
X100960Y-62699D01*
X100840Y-62699D01*
X100830Y-62654D01*
X100830Y-62654D01*
X100776Y-62573D01*
X100776Y-62573D01*
X100278Y-62074D01*
X100197Y-62020D01*
X100101Y-62001D01*
X98062Y-62001D01*
X98062Y-61861D01*
X98031Y-61788D01*
X98028Y-61785D01*
X98074Y-61740D01*
X98112Y-61648D01*
X98112Y-61611D01*
X98049Y-61549D01*
X97124Y-61549D01*
X97124Y-61557D01*
X97024Y-61557D01*
X97024Y-61549D01*
X96099Y-61549D01*
X96069Y-61579D01*
X95920Y-61429D01*
X95920Y-61116D01*
X95960Y-61176D01*
X96041Y-61230D01*
X96094Y-61241D01*
X96075Y-61259D01*
X96037Y-61351D01*
X96037Y-61388D01*
X96099Y-61450D01*
X97024Y-61450D01*
X97024Y-61442D01*
X97124Y-61442D01*
X97124Y-61450D01*
X97952Y-61450D01*
X98070Y-61499D01*
X98219Y-61499D01*
X98357Y-61442D01*
X98463Y-61337D01*
X98520Y-61199D01*
X98520Y-61050D01*
X98463Y-60912D01*
X98358Y-60807D01*
X98262Y-60767D01*
X98262Y-60500D01*
X98243Y-60404D01*
X98189Y-60323D01*
X98107Y-60269D01*
X98012Y-60250D01*
X97993Y-60250D01*
X97993Y-60249D01*
X98031Y-60211D01*
X98062Y-60138D01*
X98062Y-60058D01*
X98062Y-59861D01*
X98031Y-59788D01*
X97975Y-59732D01*
X97902Y-59701D01*
X97822Y-59701D01*
X97324Y-59701D01*
X97324Y-57012D01*
X97305Y-56916D01*
X97305Y-56916D01*
X97251Y-56835D01*
X96608Y-56192D01*
X96691Y-56175D01*
X96853Y-56067D01*
X96961Y-55905D01*
X97000Y-55713D01*
X97038Y-55905D01*
X97146Y-56067D01*
X97308Y-56175D01*
X97500Y-56213D01*
X97691Y-56175D01*
X97853Y-56067D01*
X97961Y-55905D01*
X98000Y-55713D01*
X98038Y-55905D01*
X98146Y-56067D01*
X98308Y-56175D01*
X98500Y-56213D01*
X98691Y-56175D01*
X98853Y-56067D01*
X98961Y-55905D01*
X99000Y-55713D01*
X99038Y-55905D01*
X99146Y-56067D01*
X99308Y-56175D01*
X99500Y-56213D01*
X99691Y-56175D01*
X99853Y-56067D01*
X99961Y-55905D01*
X100000Y-55713D01*
X100038Y-55905D01*
X100146Y-56067D01*
X100308Y-56175D01*
X100500Y-56213D01*
X100691Y-56175D01*
X100853Y-56067D01*
X100961Y-55905D01*
X101000Y-55713D01*
X101038Y-55905D01*
X101146Y-56067D01*
X101308Y-56175D01*
X101500Y-56213D01*
X101691Y-56175D01*
X101853Y-56067D01*
X101961Y-55905D01*
X102000Y-55713D01*
X102038Y-55905D01*
X102146Y-56067D01*
X102308Y-56175D01*
X102500Y-56213D01*
X102691Y-56175D01*
X102853Y-56067D01*
X102961Y-55905D01*
X103000Y-55713D01*
X103000Y-55286D01*
X102961Y-55094D01*
X102853Y-54932D01*
X102691Y-54824D01*
X102500Y-54786D01*
X102308Y-54824D01*
X102146Y-54932D01*
X102038Y-55094D01*
X102000Y-55286D01*
X101961Y-55094D01*
X101853Y-54932D01*
X101691Y-54824D01*
X101500Y-54786D01*
X101308Y-54824D01*
X101146Y-54932D01*
X101038Y-55094D01*
X101000Y-55286D01*
X100961Y-55094D01*
X100853Y-54932D01*
X100691Y-54824D01*
X100500Y-54786D01*
X100308Y-54824D01*
X100146Y-54932D01*
X100038Y-55094D01*
X100000Y-55286D01*
X99961Y-55094D01*
X99853Y-54932D01*
X99691Y-54824D01*
X99500Y-54786D01*
X99308Y-54824D01*
X99146Y-54932D01*
X99038Y-55094D01*
X99000Y-55286D01*
X98961Y-55094D01*
X98853Y-54932D01*
X98691Y-54824D01*
X98500Y-54786D01*
X98308Y-54824D01*
X98146Y-54932D01*
X98038Y-55094D01*
X98000Y-55286D01*
X97961Y-55094D01*
X97853Y-54932D01*
X97691Y-54824D01*
X97500Y-54786D01*
X97308Y-54824D01*
X97146Y-54932D01*
X97038Y-55094D01*
X97000Y-55286D01*
X96961Y-55094D01*
X96853Y-54932D01*
X96691Y-54824D01*
X96500Y-54786D01*
X96308Y-54824D01*
X96146Y-54932D01*
X96038Y-55094D01*
X96000Y-55286D01*
X95961Y-55094D01*
X95853Y-54932D01*
X95691Y-54824D01*
X95500Y-54786D01*
X95308Y-54824D01*
X95146Y-54932D01*
X95038Y-55094D01*
X95000Y-55286D01*
X95000Y-55713D01*
X95038Y-55905D01*
X95101Y-55999D01*
X94350Y-55999D01*
X94290Y-56011D01*
X94361Y-55905D01*
X94400Y-55713D01*
X94400Y-55286D01*
X94361Y-55094D01*
X94253Y-54932D01*
X94091Y-54824D01*
X93900Y-54786D01*
X93708Y-54824D01*
X93546Y-54932D01*
X93438Y-55094D01*
X93400Y-55286D01*
X93361Y-55094D01*
X93253Y-54932D01*
X93091Y-54824D01*
X92900Y-54786D01*
X92708Y-54824D01*
X92546Y-54932D01*
X92438Y-55094D01*
X92400Y-55286D01*
X92361Y-55094D01*
X92253Y-54932D01*
X92091Y-54824D01*
X91900Y-54786D01*
X91708Y-54824D01*
X91546Y-54932D01*
X91438Y-55094D01*
X91400Y-55286D01*
X91361Y-55094D01*
X91253Y-54932D01*
X91091Y-54824D01*
X90900Y-54786D01*
X90708Y-54824D01*
X90546Y-54932D01*
X90438Y-55094D01*
X90400Y-55286D01*
X90361Y-55094D01*
X90253Y-54932D01*
X90091Y-54824D01*
X89900Y-54786D01*
X89708Y-54824D01*
X89546Y-54932D01*
X89438Y-55094D01*
X89400Y-55286D01*
X89361Y-55094D01*
X89253Y-54932D01*
X89091Y-54824D01*
X88900Y-54786D01*
X88708Y-54824D01*
X88546Y-54932D01*
X88438Y-55094D01*
X88424Y-55163D01*
X88388Y-55043D01*
X88253Y-54875D01*
X88064Y-54772D01*
X88035Y-54766D01*
X87950Y-54815D01*
X87950Y-55450D01*
X87957Y-55450D01*
X87957Y-55550D01*
X87950Y-55550D01*
X87950Y-56184D01*
X88035Y-56233D01*
X88064Y-56227D01*
X88253Y-56124D01*
X88388Y-55956D01*
X88424Y-55836D01*
X88438Y-55905D01*
X88546Y-56067D01*
X88708Y-56175D01*
X88900Y-56213D01*
X89091Y-56175D01*
X89253Y-56067D01*
X89361Y-55905D01*
X89400Y-55713D01*
X89438Y-55905D01*
X89546Y-56067D01*
X89708Y-56175D01*
X89900Y-56213D01*
X90091Y-56175D01*
X90253Y-56067D01*
X90361Y-55905D01*
X90400Y-55713D01*
X90438Y-55905D01*
X90546Y-56067D01*
X90708Y-56175D01*
X90900Y-56213D01*
X91091Y-56175D01*
X91253Y-56067D01*
X91361Y-55905D01*
X91400Y-55713D01*
X91438Y-55905D01*
X91546Y-56067D01*
X91708Y-56175D01*
X91900Y-56213D01*
X92091Y-56175D01*
X92253Y-56067D01*
X92361Y-55905D01*
X92400Y-55713D01*
X92438Y-55905D01*
X92546Y-56067D01*
X92708Y-56175D01*
X92900Y-56213D01*
X93091Y-56175D01*
X93253Y-56067D01*
X93361Y-55905D01*
X93400Y-55713D01*
X93438Y-55905D01*
X93546Y-56067D01*
X93708Y-56175D01*
X93900Y-56213D01*
X94065Y-56180D01*
X92600Y-57646D01*
X92600Y-57610D01*
X92569Y-57536D01*
X92513Y-57480D01*
X92439Y-57450D01*
X92360Y-57449D01*
X91760Y-57449D01*
X91686Y-57480D01*
X91630Y-57536D01*
X91600Y-57610D01*
X91599Y-57689D01*
X91599Y-58489D01*
X91604Y-58499D01*
X91295Y-58499D01*
X91299Y-58489D01*
X91300Y-58410D01*
X91300Y-57610D01*
X91269Y-57536D01*
X91213Y-57480D01*
X91139Y-57450D01*
X91060Y-57449D01*
X90460Y-57449D01*
X90386Y-57480D01*
X90330Y-57536D01*
X90300Y-57610D01*
X90300Y-57646D01*
X89119Y-56466D01*
X89038Y-56412D01*
X88943Y-56393D01*
X87850Y-56393D01*
X87850Y-56184D01*
X87850Y-55550D01*
X87842Y-55550D01*
X87842Y-55450D01*
X87850Y-55450D01*
X87850Y-54815D01*
X87764Y-54766D01*
X87735Y-54772D01*
X87546Y-54875D01*
X87411Y-55043D01*
X87375Y-55163D01*
X87361Y-55094D01*
X87253Y-54932D01*
X87091Y-54824D01*
X86900Y-54786D01*
X86708Y-54824D01*
X86546Y-54932D01*
X86438Y-55094D01*
X86400Y-55286D01*
X86400Y-55713D01*
X86438Y-55905D01*
X86546Y-56067D01*
X86708Y-56175D01*
X86900Y-56213D01*
X87091Y-56175D01*
X87253Y-56067D01*
X87361Y-55905D01*
X87375Y-55836D01*
X87411Y-55956D01*
X87546Y-56124D01*
X87735Y-56227D01*
X87764Y-56233D01*
X87850Y-56184D01*
X87850Y-56393D01*
X83891Y-56393D01*
X84051Y-56327D01*
X84326Y-56053D01*
X84474Y-55694D01*
X84475Y-55306D01*
X84327Y-54948D01*
X84053Y-54673D01*
X83754Y-54550D01*
X104450Y-54550D01*
X104450Y-61245D01*
X104327Y-60948D01*
X104053Y-60673D01*
X103694Y-60525D01*
X103306Y-60524D01*
X102948Y-60672D01*
X102673Y-60946D01*
X102525Y-61305D01*
X102524Y-61693D01*
X102672Y-62051D01*
X102946Y-62326D01*
X103305Y-62474D01*
X103693Y-62475D01*
X104051Y-62327D01*
X104326Y-62053D01*
X104450Y-61754D01*
X104450Y-72245D01*
X104327Y-71948D01*
X104053Y-71673D01*
X103694Y-71525D01*
X103306Y-71524D01*
X102948Y-71672D01*
X102673Y-71946D01*
X102525Y-72305D01*
X102524Y-72693D01*
X102672Y-73051D01*
X102946Y-73326D01*
X103305Y-73474D01*
X103693Y-73475D01*
X104051Y-73327D01*
X104326Y-73053D01*
X104450Y-72754D01*
X104450Y-75450D01*
X104450Y-75450D01*
G37*
G54D22*
X104450Y-75450D02*
X103000Y-75450D01*
X103000Y-74713D01*
X103000Y-74286D01*
X102961Y-74094D01*
X102853Y-73932D01*
X102691Y-73824D01*
X102500Y-73786D01*
X102308Y-73824D01*
X102300Y-73830D01*
X102300Y-71049D01*
X102300Y-70350D01*
X102300Y-63549D01*
X102300Y-62850D01*
X102262Y-62758D01*
X102191Y-62688D01*
X102099Y-62650D01*
X102000Y-62649D01*
X101762Y-62650D01*
X101700Y-62712D01*
X101700Y-63150D01*
X102237Y-63150D01*
X102300Y-63087D01*
X102300Y-62850D01*
X102300Y-63549D01*
X102300Y-63312D01*
X102237Y-63250D01*
X101700Y-63250D01*
X101700Y-63687D01*
X101762Y-63750D01*
X102000Y-63750D01*
X102099Y-63749D01*
X102191Y-63711D01*
X102262Y-63641D01*
X102300Y-63549D01*
X102300Y-70350D01*
X102262Y-70258D01*
X102250Y-70246D01*
X102250Y-64760D01*
X102250Y-64160D01*
X102219Y-64086D01*
X102163Y-64030D01*
X102089Y-64000D01*
X102010Y-63999D01*
X101210Y-63999D01*
X101136Y-64030D01*
X101125Y-64042D01*
X101113Y-64030D01*
X101039Y-64000D01*
X100960Y-63999D01*
X100160Y-63999D01*
X100086Y-64030D01*
X100075Y-64042D01*
X100063Y-64030D01*
X99989Y-64000D01*
X99910Y-63999D01*
X99110Y-63999D01*
X99036Y-64030D01*
X99025Y-64042D01*
X99013Y-64030D01*
X98939Y-64000D01*
X98860Y-63999D01*
X98060Y-63999D01*
X97986Y-64030D01*
X97930Y-64086D01*
X97900Y-64160D01*
X97899Y-64239D01*
X97899Y-64839D01*
X97930Y-64913D01*
X97986Y-64969D01*
X98060Y-64999D01*
X98139Y-65000D01*
X98259Y-65000D01*
X98269Y-65045D01*
X98311Y-65109D01*
X98311Y-65157D01*
X98368Y-65295D01*
X98473Y-65401D01*
X98611Y-65458D01*
X98760Y-65458D01*
X98898Y-65401D01*
X99004Y-65296D01*
X99061Y-65158D01*
X99061Y-65009D01*
X99046Y-64973D01*
X99110Y-64999D01*
X99189Y-65000D01*
X99989Y-65000D01*
X100063Y-64969D01*
X100074Y-64957D01*
X100086Y-64969D01*
X100132Y-64988D01*
X100125Y-65007D01*
X100124Y-65156D01*
X100181Y-65294D01*
X100287Y-65399D01*
X100425Y-65457D01*
X100574Y-65457D01*
X100712Y-65400D01*
X100817Y-65294D01*
X100874Y-65157D01*
X100875Y-65007D01*
X100871Y-65000D01*
X101039Y-65000D01*
X101113Y-64969D01*
X101124Y-64957D01*
X101136Y-64969D01*
X101210Y-64999D01*
X101289Y-65000D01*
X102089Y-65000D01*
X102163Y-64969D01*
X102219Y-64913D01*
X102249Y-64839D01*
X102250Y-64760D01*
X102250Y-70246D01*
X102191Y-70188D01*
X102099Y-70150D01*
X102000Y-70149D01*
X101762Y-70150D01*
X101700Y-70212D01*
X101700Y-70650D01*
X102237Y-70650D01*
X102300Y-70587D01*
X102300Y-70350D01*
X102300Y-71049D01*
X102300Y-70812D01*
X102237Y-70750D01*
X101700Y-70750D01*
X101700Y-71187D01*
X101762Y-71250D01*
X102000Y-71250D01*
X102099Y-71249D01*
X102191Y-71211D01*
X102262Y-71141D01*
X102300Y-71049D01*
X102300Y-73830D01*
X102146Y-73932D01*
X102038Y-74094D01*
X102000Y-74286D01*
X101961Y-74094D01*
X101853Y-73932D01*
X101750Y-73863D01*
X101750Y-72703D01*
X101826Y-72626D01*
X101880Y-72545D01*
X101880Y-72545D01*
X101890Y-72500D01*
X102089Y-72500D01*
X102163Y-72469D01*
X102219Y-72413D01*
X102249Y-72339D01*
X102250Y-72260D01*
X102250Y-71660D01*
X102219Y-71586D01*
X102163Y-71530D01*
X102089Y-71500D01*
X102010Y-71499D01*
X101600Y-71499D01*
X101600Y-71187D01*
X101600Y-70750D01*
X101592Y-70750D01*
X101592Y-70650D01*
X101600Y-70650D01*
X101600Y-70212D01*
X101537Y-70150D01*
X101299Y-70149D01*
X101200Y-70150D01*
X101108Y-70188D01*
X101079Y-70216D01*
X101039Y-70200D01*
X100960Y-70199D01*
X100160Y-70199D01*
X100120Y-70216D01*
X100091Y-70188D01*
X99999Y-70150D01*
X99900Y-70149D01*
X99662Y-70150D01*
X99600Y-70212D01*
X99600Y-70650D01*
X99607Y-70650D01*
X99607Y-70750D01*
X99600Y-70750D01*
X99600Y-70757D01*
X99500Y-70757D01*
X99500Y-70750D01*
X99492Y-70750D01*
X99492Y-70650D01*
X99500Y-70650D01*
X99500Y-70212D01*
X99437Y-70150D01*
X99199Y-70149D01*
X99100Y-70150D01*
X99008Y-70188D01*
X98979Y-70216D01*
X98939Y-70200D01*
X98860Y-70199D01*
X98262Y-70199D01*
X98262Y-70000D01*
X98243Y-69904D01*
X98189Y-69823D01*
X98107Y-69769D01*
X98012Y-69750D01*
X97993Y-69750D01*
X97993Y-69749D01*
X98031Y-69711D01*
X98062Y-69638D01*
X98062Y-69558D01*
X98062Y-69361D01*
X98031Y-69288D01*
X98028Y-69285D01*
X98074Y-69240D01*
X98112Y-69148D01*
X98112Y-69111D01*
X98049Y-69049D01*
X97124Y-69049D01*
X97124Y-69057D01*
X97024Y-69057D01*
X97024Y-69049D01*
X96099Y-69049D01*
X96069Y-69079D01*
X95326Y-68335D01*
X95326Y-67713D01*
X95307Y-67618D01*
X95253Y-67537D01*
X95066Y-67350D01*
X95199Y-67350D01*
X95291Y-67312D01*
X95361Y-67241D01*
X95399Y-67149D01*
X95400Y-67050D01*
X95400Y-66812D01*
X95337Y-66750D01*
X94900Y-66750D01*
X94900Y-66757D01*
X94800Y-66757D01*
X94800Y-66750D01*
X94362Y-66750D01*
X94300Y-66812D01*
X94299Y-67050D01*
X94300Y-67149D01*
X94321Y-67201D01*
X93980Y-67201D01*
X93552Y-66773D01*
X93470Y-66719D01*
X93375Y-66700D01*
X93100Y-66700D01*
X93100Y-66160D01*
X93069Y-66086D01*
X93013Y-66030D01*
X92939Y-66000D01*
X92860Y-65999D01*
X92595Y-65999D01*
X92599Y-65989D01*
X92600Y-65910D01*
X92600Y-65790D01*
X92645Y-65780D01*
X92726Y-65726D01*
X94261Y-64192D01*
X94349Y-64192D01*
X94349Y-64939D01*
X94380Y-65013D01*
X94417Y-65050D01*
X94380Y-65086D01*
X94350Y-65160D01*
X94349Y-65239D01*
X94349Y-66039D01*
X94380Y-66113D01*
X94381Y-66114D01*
X94338Y-66158D01*
X94300Y-66250D01*
X94299Y-66349D01*
X94300Y-66587D01*
X94362Y-66650D01*
X94800Y-66650D01*
X94800Y-66642D01*
X94900Y-66642D01*
X94900Y-66650D01*
X95337Y-66650D01*
X95400Y-66587D01*
X95400Y-66349D01*
X95399Y-66250D01*
X95361Y-66158D01*
X95318Y-66114D01*
X95319Y-66113D01*
X95349Y-66039D01*
X95350Y-65972D01*
X95355Y-65974D01*
X95504Y-65975D01*
X95642Y-65918D01*
X95649Y-65910D01*
X95649Y-66039D01*
X95680Y-66113D01*
X95717Y-66150D01*
X95680Y-66186D01*
X95650Y-66260D01*
X95649Y-66339D01*
X95649Y-67139D01*
X95680Y-67213D01*
X95736Y-67269D01*
X95810Y-67299D01*
X95887Y-67300D01*
X95887Y-68500D01*
X95906Y-68595D01*
X95960Y-68676D01*
X96041Y-68730D01*
X96094Y-68741D01*
X96075Y-68759D01*
X96037Y-68851D01*
X96037Y-68888D01*
X96099Y-68950D01*
X97024Y-68950D01*
X97024Y-68942D01*
X97124Y-68942D01*
X97124Y-68950D01*
X98049Y-68950D01*
X98112Y-68888D01*
X98112Y-68851D01*
X98074Y-68759D01*
X98028Y-68714D01*
X98031Y-68711D01*
X98062Y-68638D01*
X98062Y-68558D01*
X98062Y-68374D01*
X98062Y-68374D01*
X98211Y-68375D01*
X98349Y-68318D01*
X98455Y-68212D01*
X98512Y-68074D01*
X98512Y-67925D01*
X98455Y-67787D01*
X98350Y-67682D01*
X98212Y-67625D01*
X98063Y-67624D01*
X98062Y-67625D01*
X98062Y-67558D01*
X98062Y-67361D01*
X98031Y-67288D01*
X97975Y-67232D01*
X97902Y-67201D01*
X97822Y-67201D01*
X97324Y-67201D01*
X97324Y-64490D01*
X97305Y-64394D01*
X97251Y-64313D01*
X96703Y-63765D01*
X96622Y-63711D01*
X96526Y-63692D01*
X94157Y-63692D01*
X94062Y-63711D01*
X93980Y-63765D01*
X93687Y-64058D01*
X93686Y-64055D01*
X93581Y-63950D01*
X93443Y-63892D01*
X93294Y-63892D01*
X93156Y-63949D01*
X93088Y-64017D01*
X92639Y-64017D01*
X92600Y-64009D01*
X92600Y-63910D01*
X92569Y-63836D01*
X92513Y-63780D01*
X92439Y-63750D01*
X92360Y-63749D01*
X91560Y-63749D01*
X91486Y-63780D01*
X91449Y-63817D01*
X91413Y-63780D01*
X91339Y-63750D01*
X91260Y-63749D01*
X90460Y-63749D01*
X90386Y-63780D01*
X90330Y-63836D01*
X90300Y-63910D01*
X90299Y-63989D01*
X90299Y-64589D01*
X90330Y-64663D01*
X90386Y-64719D01*
X90460Y-64749D01*
X90539Y-64750D01*
X91339Y-64750D01*
X91413Y-64719D01*
X91450Y-64682D01*
X91486Y-64719D01*
X91560Y-64749D01*
X91639Y-64750D01*
X92439Y-64750D01*
X92513Y-64719D01*
X92569Y-64663D01*
X92599Y-64589D01*
X92600Y-64517D01*
X93088Y-64517D01*
X93155Y-64585D01*
X93159Y-64587D01*
X92600Y-65146D01*
X92600Y-65110D01*
X92569Y-65036D01*
X92513Y-64980D01*
X92439Y-64950D01*
X92360Y-64949D01*
X91760Y-64949D01*
X91686Y-64980D01*
X91630Y-65036D01*
X91600Y-65110D01*
X91599Y-65189D01*
X91599Y-65989D01*
X91604Y-65999D01*
X91295Y-65999D01*
X91299Y-65989D01*
X91300Y-65910D01*
X91300Y-65110D01*
X91269Y-65036D01*
X91213Y-64980D01*
X91139Y-64950D01*
X91060Y-64949D01*
X90460Y-64949D01*
X90386Y-64980D01*
X90330Y-65036D01*
X90300Y-65110D01*
X90299Y-65189D01*
X90299Y-65300D01*
X82950Y-65300D01*
X82854Y-65319D01*
X82773Y-65373D01*
X82546Y-65600D01*
X82420Y-65599D01*
X82273Y-65660D01*
X82250Y-65684D01*
X82226Y-65661D01*
X82079Y-65600D01*
X81920Y-65599D01*
X81773Y-65660D01*
X81750Y-65684D01*
X81726Y-65661D01*
X81579Y-65600D01*
X81420Y-65599D01*
X81273Y-65660D01*
X81161Y-65773D01*
X81100Y-65920D01*
X81099Y-66079D01*
X81160Y-66226D01*
X81184Y-66249D01*
X81161Y-66273D01*
X81100Y-66420D01*
X81099Y-66579D01*
X81160Y-66726D01*
X81184Y-66749D01*
X81184Y-66750D01*
X79437Y-66750D01*
X79424Y-66717D01*
X79283Y-66576D01*
X79226Y-66552D01*
X79230Y-66545D01*
X79240Y-66500D01*
X79339Y-66500D01*
X79413Y-66469D01*
X79469Y-66413D01*
X79499Y-66339D01*
X79500Y-66260D01*
X79500Y-65660D01*
X79469Y-65586D01*
X79413Y-65530D01*
X79339Y-65500D01*
X79260Y-65499D01*
X78660Y-65499D01*
X78586Y-65530D01*
X78530Y-65586D01*
X78500Y-65660D01*
X78499Y-65739D01*
X78499Y-66339D01*
X78530Y-66413D01*
X78550Y-66433D01*
X78373Y-66610D01*
X78318Y-66692D01*
X78299Y-66787D01*
X78299Y-72549D01*
X78318Y-72645D01*
X78373Y-72726D01*
X78513Y-72867D01*
X78500Y-72900D01*
X78499Y-73099D01*
X78575Y-73282D01*
X78716Y-73423D01*
X78900Y-73499D01*
X79099Y-73500D01*
X79282Y-73424D01*
X79423Y-73283D01*
X79499Y-73099D01*
X79500Y-72900D01*
X79424Y-72717D01*
X79283Y-72576D01*
X79099Y-72500D01*
X79039Y-72500D01*
X79339Y-72500D01*
X79413Y-72469D01*
X79469Y-72413D01*
X79499Y-72339D01*
X79500Y-72260D01*
X79500Y-72250D01*
X81184Y-72250D01*
X81161Y-72273D01*
X81100Y-72420D01*
X81099Y-72579D01*
X81160Y-72726D01*
X81184Y-72749D01*
X81161Y-72773D01*
X81100Y-72920D01*
X81099Y-73079D01*
X81160Y-73226D01*
X81273Y-73338D01*
X81420Y-73399D01*
X81579Y-73400D01*
X81726Y-73339D01*
X81749Y-73315D01*
X81773Y-73338D01*
X81920Y-73399D01*
X82079Y-73400D01*
X82226Y-73339D01*
X82249Y-73315D01*
X82273Y-73338D01*
X82420Y-73399D01*
X82579Y-73400D01*
X82726Y-73339D01*
X82838Y-73226D01*
X82899Y-73079D01*
X82900Y-72920D01*
X82839Y-72773D01*
X82815Y-72750D01*
X82838Y-72726D01*
X82899Y-72579D01*
X82900Y-72420D01*
X82839Y-72273D01*
X82815Y-72250D01*
X82838Y-72226D01*
X82893Y-72095D01*
X83114Y-72317D01*
X84170Y-72755D01*
X84109Y-72901D01*
X84109Y-73098D01*
X84184Y-73280D01*
X84324Y-73419D01*
X84506Y-73495D01*
X84703Y-73495D01*
X84885Y-73420D01*
X85000Y-73305D01*
X85114Y-73419D01*
X85296Y-73495D01*
X85493Y-73495D01*
X85675Y-73420D01*
X85814Y-73280D01*
X85890Y-73098D01*
X85890Y-72901D01*
X85829Y-72754D01*
X86881Y-72320D01*
X87106Y-72095D01*
X87160Y-72226D01*
X87184Y-72249D01*
X87161Y-72273D01*
X87100Y-72420D01*
X87099Y-72579D01*
X87160Y-72726D01*
X87184Y-72749D01*
X87161Y-72773D01*
X87100Y-72920D01*
X87099Y-73079D01*
X87160Y-73226D01*
X87273Y-73338D01*
X87420Y-73399D01*
X87579Y-73400D01*
X87726Y-73339D01*
X87749Y-73315D01*
X87773Y-73338D01*
X87920Y-73399D01*
X88079Y-73400D01*
X88226Y-73339D01*
X88249Y-73315D01*
X88273Y-73338D01*
X88420Y-73399D01*
X88579Y-73400D01*
X88726Y-73339D01*
X88838Y-73226D01*
X88899Y-73079D01*
X88900Y-72920D01*
X88839Y-72773D01*
X88815Y-72750D01*
X88838Y-72726D01*
X88899Y-72579D01*
X88900Y-72420D01*
X88839Y-72273D01*
X88815Y-72250D01*
X88838Y-72226D01*
X88899Y-72079D01*
X88900Y-71920D01*
X88839Y-71773D01*
X88750Y-71684D01*
X88750Y-70327D01*
X88780Y-70315D01*
X88919Y-70175D01*
X88995Y-69993D01*
X88995Y-69796D01*
X88920Y-69614D01*
X88805Y-69499D01*
X88919Y-69385D01*
X88995Y-69203D01*
X88995Y-69006D01*
X88920Y-68824D01*
X88780Y-68685D01*
X88598Y-68609D01*
X88401Y-68609D01*
X88254Y-68670D01*
X87820Y-67618D01*
X87595Y-67393D01*
X87726Y-67339D01*
X87749Y-67315D01*
X87773Y-67338D01*
X87920Y-67399D01*
X88079Y-67400D01*
X88226Y-67339D01*
X88249Y-67315D01*
X88273Y-67338D01*
X88420Y-67399D01*
X88579Y-67400D01*
X88726Y-67339D01*
X88838Y-67226D01*
X88899Y-67079D01*
X88900Y-66920D01*
X88839Y-66773D01*
X88815Y-66750D01*
X88815Y-66750D01*
X89799Y-66750D01*
X89799Y-66839D01*
X89830Y-66913D01*
X89886Y-66969D01*
X89960Y-66999D01*
X90039Y-67000D01*
X90839Y-67000D01*
X90913Y-66969D01*
X90924Y-66957D01*
X90936Y-66969D01*
X91010Y-66999D01*
X91089Y-67000D01*
X91889Y-67000D01*
X91963Y-66969D01*
X91974Y-66957D01*
X91986Y-66969D01*
X92060Y-66999D01*
X92139Y-67000D01*
X92259Y-67000D01*
X92269Y-67045D01*
X92323Y-67126D01*
X92404Y-67181D01*
X92500Y-67200D01*
X93271Y-67200D01*
X93273Y-67201D01*
X93098Y-67201D01*
X93024Y-67231D01*
X92968Y-67288D01*
X92959Y-67308D01*
X92939Y-67300D01*
X92860Y-67299D01*
X92060Y-67299D01*
X91986Y-67330D01*
X91975Y-67342D01*
X91963Y-67330D01*
X91889Y-67300D01*
X91810Y-67299D01*
X91010Y-67299D01*
X90936Y-67330D01*
X90925Y-67342D01*
X90913Y-67330D01*
X90839Y-67300D01*
X90760Y-67299D01*
X89960Y-67299D01*
X89886Y-67330D01*
X89830Y-67386D01*
X89800Y-67460D01*
X89799Y-67539D01*
X89799Y-68139D01*
X89830Y-68213D01*
X89886Y-68269D01*
X89960Y-68299D01*
X90039Y-68300D01*
X90839Y-68300D01*
X90913Y-68269D01*
X90924Y-68257D01*
X90936Y-68269D01*
X91010Y-68299D01*
X91089Y-68300D01*
X91889Y-68300D01*
X91963Y-68269D01*
X91974Y-68257D01*
X91986Y-68269D01*
X92060Y-68299D01*
X92139Y-68300D01*
X92939Y-68300D01*
X92968Y-68288D01*
X92937Y-68361D01*
X92937Y-68400D01*
X92860Y-68399D01*
X92260Y-68399D01*
X92186Y-68430D01*
X92130Y-68486D01*
X92100Y-68560D01*
X92099Y-68627D01*
X92094Y-68625D01*
X91945Y-68624D01*
X91850Y-68664D01*
X91850Y-68649D01*
X91849Y-68550D01*
X91811Y-68458D01*
X91741Y-68387D01*
X91649Y-68349D01*
X91412Y-68350D01*
X91350Y-68412D01*
X91350Y-68950D01*
X91357Y-68950D01*
X91357Y-69050D01*
X91350Y-69050D01*
X91350Y-69587D01*
X91412Y-69650D01*
X91649Y-69650D01*
X91741Y-69612D01*
X91811Y-69541D01*
X91849Y-69449D01*
X91850Y-69350D01*
X91850Y-69335D01*
X91944Y-69374D01*
X92093Y-69375D01*
X92099Y-69372D01*
X92099Y-69439D01*
X92130Y-69513D01*
X92186Y-69569D01*
X92260Y-69599D01*
X92339Y-69600D01*
X92561Y-69600D01*
X92561Y-71649D01*
X92160Y-71649D01*
X92086Y-71680D01*
X92030Y-71736D01*
X92000Y-71810D01*
X92000Y-71810D01*
X91969Y-71736D01*
X91913Y-71680D01*
X91839Y-71650D01*
X91760Y-71649D01*
X91250Y-71649D01*
X91250Y-69587D01*
X91250Y-69050D01*
X91250Y-68950D01*
X91250Y-68412D01*
X91187Y-68350D01*
X90950Y-68349D01*
X90858Y-68387D01*
X90788Y-68458D01*
X90750Y-68550D01*
X90749Y-68649D01*
X90750Y-68887D01*
X90812Y-68950D01*
X91250Y-68950D01*
X91250Y-69050D01*
X90812Y-69050D01*
X90750Y-69112D01*
X90749Y-69350D01*
X90750Y-69449D01*
X90788Y-69541D01*
X90858Y-69612D01*
X90950Y-69650D01*
X91187Y-69650D01*
X91250Y-69587D01*
X91250Y-71649D01*
X90960Y-71649D01*
X90886Y-71680D01*
X90830Y-71736D01*
X90800Y-71810D01*
X90799Y-71889D01*
X90799Y-72489D01*
X90830Y-72563D01*
X90886Y-72619D01*
X90960Y-72649D01*
X91039Y-72650D01*
X91839Y-72650D01*
X91913Y-72619D01*
X91969Y-72563D01*
X91999Y-72489D01*
X91999Y-72489D01*
X92030Y-72563D01*
X92086Y-72619D01*
X92160Y-72649D01*
X92239Y-72650D01*
X93039Y-72650D01*
X93113Y-72619D01*
X93169Y-72563D01*
X93199Y-72489D01*
X93200Y-72410D01*
X93200Y-72390D01*
X93245Y-72380D01*
X93245Y-72380D01*
X93268Y-72366D01*
X93268Y-72366D01*
X93399Y-72366D01*
X93399Y-72489D01*
X93430Y-72563D01*
X93486Y-72619D01*
X93560Y-72649D01*
X93639Y-72650D01*
X94439Y-72650D01*
X94513Y-72619D01*
X94569Y-72563D01*
X94599Y-72489D01*
X94600Y-72410D01*
X94600Y-71810D01*
X94569Y-71736D01*
X94513Y-71680D01*
X94439Y-71650D01*
X94360Y-71649D01*
X93560Y-71649D01*
X93486Y-71680D01*
X93430Y-71736D01*
X93400Y-71810D01*
X93399Y-71866D01*
X93200Y-71866D01*
X93200Y-71810D01*
X93169Y-71736D01*
X93113Y-71680D01*
X93061Y-71659D01*
X93061Y-70783D01*
X93097Y-70798D01*
X93177Y-70798D01*
X94752Y-70798D01*
X94825Y-70768D01*
X94882Y-70711D01*
X94912Y-70638D01*
X94912Y-70589D01*
X95649Y-71326D01*
X95649Y-71326D01*
X95730Y-71381D01*
X95730Y-71381D01*
X95807Y-71396D01*
X95826Y-71400D01*
X95826Y-71400D01*
X95826Y-71400D01*
X100600Y-71400D01*
X100695Y-71381D01*
X100776Y-71326D01*
X100830Y-71245D01*
X100840Y-71200D01*
X101039Y-71200D01*
X101079Y-71183D01*
X101108Y-71211D01*
X101200Y-71249D01*
X101299Y-71250D01*
X101537Y-71250D01*
X101600Y-71187D01*
X101600Y-71499D01*
X101210Y-71499D01*
X101136Y-71530D01*
X101125Y-71542D01*
X101113Y-71530D01*
X101039Y-71500D01*
X100960Y-71499D01*
X100160Y-71499D01*
X100086Y-71530D01*
X100075Y-71542D01*
X100063Y-71530D01*
X99989Y-71500D01*
X99910Y-71499D01*
X99110Y-71499D01*
X99036Y-71530D01*
X99025Y-71542D01*
X99013Y-71530D01*
X98939Y-71500D01*
X98860Y-71499D01*
X98060Y-71499D01*
X97986Y-71530D01*
X97930Y-71586D01*
X97900Y-71660D01*
X97899Y-71739D01*
X97899Y-72339D01*
X97930Y-72413D01*
X97986Y-72469D01*
X98060Y-72499D01*
X98139Y-72500D01*
X98939Y-72500D01*
X99013Y-72469D01*
X99024Y-72457D01*
X99036Y-72469D01*
X99110Y-72499D01*
X99189Y-72500D01*
X99250Y-72500D01*
X99250Y-72500D01*
X99250Y-73863D01*
X99146Y-73932D01*
X99038Y-74094D01*
X99000Y-74286D01*
X98961Y-74094D01*
X98853Y-73932D01*
X98691Y-73824D01*
X98500Y-73786D01*
X98308Y-73824D01*
X98146Y-73932D01*
X98038Y-74094D01*
X98000Y-74286D01*
X97961Y-74094D01*
X97853Y-73932D01*
X97691Y-73824D01*
X97500Y-73786D01*
X97308Y-73824D01*
X97146Y-73932D01*
X97038Y-74094D01*
X97000Y-74286D01*
X97000Y-74713D01*
X97038Y-74905D01*
X97146Y-75067D01*
X97308Y-75175D01*
X97500Y-75213D01*
X97691Y-75175D01*
X97853Y-75067D01*
X97961Y-74905D01*
X98000Y-74713D01*
X98038Y-74905D01*
X98146Y-75067D01*
X98308Y-75175D01*
X98500Y-75213D01*
X98691Y-75175D01*
X98853Y-75067D01*
X98961Y-74905D01*
X99000Y-74713D01*
X99038Y-74905D01*
X99146Y-75067D01*
X99308Y-75175D01*
X99500Y-75213D01*
X99691Y-75175D01*
X99853Y-75067D01*
X99961Y-74905D01*
X100000Y-74713D01*
X100038Y-74905D01*
X100146Y-75067D01*
X100308Y-75175D01*
X100500Y-75213D01*
X100691Y-75175D01*
X100853Y-75067D01*
X100961Y-74905D01*
X101000Y-74713D01*
X101038Y-74905D01*
X101146Y-75067D01*
X101308Y-75175D01*
X101500Y-75213D01*
X101691Y-75175D01*
X101853Y-75067D01*
X101961Y-74905D01*
X102000Y-74713D01*
X102038Y-74905D01*
X102146Y-75067D01*
X102308Y-75175D01*
X102500Y-75213D01*
X102691Y-75175D01*
X102853Y-75067D01*
X102961Y-74905D01*
X103000Y-74713D01*
X103000Y-75450D01*
X96000Y-75450D01*
X96000Y-74713D01*
X96000Y-74286D01*
X95961Y-74094D01*
X95853Y-73932D01*
X95691Y-73824D01*
X95500Y-73786D01*
X95308Y-73824D01*
X95146Y-73932D01*
X95038Y-74094D01*
X95024Y-74163D01*
X94988Y-74043D01*
X94853Y-73875D01*
X94664Y-73772D01*
X94650Y-73769D01*
X94650Y-73100D01*
X94612Y-73008D01*
X94541Y-72938D01*
X94449Y-72900D01*
X94350Y-72899D01*
X94112Y-72900D01*
X94050Y-72962D01*
X94050Y-73400D01*
X94587Y-73400D01*
X94650Y-73337D01*
X94650Y-73100D01*
X94650Y-73769D01*
X94650Y-73769D01*
X94650Y-73562D01*
X94587Y-73500D01*
X94050Y-73500D01*
X94050Y-73937D01*
X94075Y-73963D01*
X94011Y-74043D01*
X94000Y-74080D01*
X93988Y-74043D01*
X93924Y-73963D01*
X93950Y-73937D01*
X93950Y-73500D01*
X93950Y-73400D01*
X93950Y-72962D01*
X93887Y-72900D01*
X93649Y-72899D01*
X93550Y-72900D01*
X93458Y-72938D01*
X93387Y-73008D01*
X93349Y-73100D01*
X93350Y-73337D01*
X93412Y-73400D01*
X93950Y-73400D01*
X93950Y-73500D01*
X93412Y-73500D01*
X93350Y-73562D01*
X93349Y-73769D01*
X93335Y-73772D01*
X93169Y-73863D01*
X93199Y-73789D01*
X93200Y-73710D01*
X93200Y-73110D01*
X93169Y-73036D01*
X93113Y-72980D01*
X93039Y-72950D01*
X92960Y-72949D01*
X92160Y-72949D01*
X92086Y-72980D01*
X92030Y-73036D01*
X92000Y-73110D01*
X92000Y-73110D01*
X91969Y-73036D01*
X91913Y-72980D01*
X91839Y-72950D01*
X91760Y-72949D01*
X90960Y-72949D01*
X90886Y-72980D01*
X90830Y-73036D01*
X90800Y-73110D01*
X90799Y-73189D01*
X90799Y-73789D01*
X90830Y-73863D01*
X90886Y-73919D01*
X90960Y-73949D01*
X91039Y-73950D01*
X91134Y-73950D01*
X91038Y-74094D01*
X91000Y-74286D01*
X90961Y-74094D01*
X90853Y-73932D01*
X90691Y-73824D01*
X90500Y-73786D01*
X90308Y-73824D01*
X90146Y-73932D01*
X90038Y-74094D01*
X90000Y-74286D01*
X90000Y-74713D01*
X90038Y-74905D01*
X90146Y-75067D01*
X90308Y-75175D01*
X90500Y-75213D01*
X90691Y-75175D01*
X90853Y-75067D01*
X90961Y-74905D01*
X91000Y-74713D01*
X91038Y-74905D01*
X91146Y-75067D01*
X91308Y-75175D01*
X91500Y-75213D01*
X91691Y-75175D01*
X91853Y-75067D01*
X91961Y-74905D01*
X92000Y-74713D01*
X92038Y-74905D01*
X92146Y-75067D01*
X92308Y-75175D01*
X92500Y-75213D01*
X92691Y-75175D01*
X92853Y-75067D01*
X92961Y-74905D01*
X92975Y-74836D01*
X93011Y-74956D01*
X93146Y-75124D01*
X93335Y-75227D01*
X93364Y-75233D01*
X93450Y-75184D01*
X93450Y-74550D01*
X93442Y-74550D01*
X93442Y-74450D01*
X93450Y-74450D01*
X93450Y-74442D01*
X93550Y-74442D01*
X93550Y-74450D01*
X93950Y-74450D01*
X94050Y-74450D01*
X94450Y-74450D01*
X94450Y-74442D01*
X94550Y-74442D01*
X94550Y-74450D01*
X94557Y-74450D01*
X94557Y-74550D01*
X94550Y-74550D01*
X94550Y-75184D01*
X94635Y-75233D01*
X94664Y-75227D01*
X94853Y-75124D01*
X94988Y-74956D01*
X95024Y-74836D01*
X95038Y-74905D01*
X95146Y-75067D01*
X95308Y-75175D01*
X95500Y-75213D01*
X95691Y-75175D01*
X95853Y-75067D01*
X95961Y-74905D01*
X96000Y-74713D01*
X96000Y-75450D01*
X94450Y-75450D01*
X94450Y-75184D01*
X94450Y-74550D01*
X94050Y-74550D01*
X93950Y-74550D01*
X93550Y-74550D01*
X93550Y-75184D01*
X93635Y-75233D01*
X93664Y-75227D01*
X93853Y-75124D01*
X93988Y-74956D01*
X94000Y-74919D01*
X94011Y-74956D01*
X94146Y-75124D01*
X94335Y-75227D01*
X94364Y-75233D01*
X94450Y-75184D01*
X94450Y-75450D01*
X83254Y-75450D01*
X83551Y-75327D01*
X83826Y-75053D01*
X83974Y-74694D01*
X83975Y-74306D01*
X83827Y-73948D01*
X83553Y-73673D01*
X83194Y-73525D01*
X82806Y-73524D01*
X82448Y-73672D01*
X82173Y-73946D01*
X82025Y-74305D01*
X82024Y-74693D01*
X82172Y-75051D01*
X82446Y-75326D01*
X82745Y-75450D01*
X77550Y-75450D01*
X77550Y-54550D01*
X83245Y-54550D01*
X82948Y-54672D01*
X82673Y-54946D01*
X82525Y-55305D01*
X82524Y-55693D01*
X82672Y-56051D01*
X82946Y-56326D01*
X83108Y-56393D01*
X82856Y-56393D01*
X82856Y-56393D01*
X82837Y-56397D01*
X82761Y-56412D01*
X82679Y-56466D01*
X82679Y-56466D01*
X82546Y-56600D01*
X82420Y-56599D01*
X82273Y-56660D01*
X82250Y-56684D01*
X82226Y-56661D01*
X82079Y-56600D01*
X81920Y-56599D01*
X81773Y-56660D01*
X81750Y-56684D01*
X81726Y-56661D01*
X81579Y-56600D01*
X81420Y-56599D01*
X81273Y-56660D01*
X81161Y-56773D01*
X81100Y-56920D01*
X81099Y-57079D01*
X81160Y-57226D01*
X81184Y-57249D01*
X81161Y-57273D01*
X81100Y-57420D01*
X81099Y-57579D01*
X81160Y-57726D01*
X81184Y-57749D01*
X81184Y-57750D01*
X79437Y-57750D01*
X79424Y-57717D01*
X79283Y-57576D01*
X79099Y-57500D01*
X79039Y-57500D01*
X79339Y-57500D01*
X79413Y-57469D01*
X79469Y-57413D01*
X79499Y-57339D01*
X79500Y-57260D01*
X79500Y-56660D01*
X79469Y-56586D01*
X79413Y-56530D01*
X79339Y-56500D01*
X79260Y-56499D01*
X78660Y-56499D01*
X78586Y-56530D01*
X78530Y-56586D01*
X78500Y-56660D01*
X78499Y-56739D01*
X78499Y-57339D01*
X78530Y-57413D01*
X78586Y-57469D01*
X78660Y-57499D01*
X78739Y-57500D01*
X78900Y-57500D01*
X78717Y-57575D01*
X78576Y-57716D01*
X78500Y-57900D01*
X78499Y-58099D01*
X78575Y-58282D01*
X78716Y-58423D01*
X78900Y-58499D01*
X79099Y-58500D01*
X79282Y-58424D01*
X79423Y-58283D01*
X79437Y-58250D01*
X81184Y-58250D01*
X81273Y-58338D01*
X81420Y-58399D01*
X81579Y-58400D01*
X81726Y-58339D01*
X81749Y-58315D01*
X81773Y-58338D01*
X81920Y-58399D01*
X82079Y-58400D01*
X82226Y-58339D01*
X82249Y-58315D01*
X82273Y-58338D01*
X82404Y-58393D01*
X82182Y-58614D01*
X81744Y-59670D01*
X81598Y-59609D01*
X81401Y-59609D01*
X81219Y-59684D01*
X81080Y-59824D01*
X81004Y-60006D01*
X81004Y-60203D01*
X81079Y-60385D01*
X81194Y-60500D01*
X81080Y-60614D01*
X81004Y-60796D01*
X81004Y-60993D01*
X81079Y-61175D01*
X81219Y-61314D01*
X81401Y-61390D01*
X81598Y-61390D01*
X81745Y-61329D01*
X82179Y-62381D01*
X82404Y-62606D01*
X82273Y-62660D01*
X82250Y-62684D01*
X82226Y-62661D01*
X82079Y-62600D01*
X81920Y-62599D01*
X81773Y-62660D01*
X81750Y-62684D01*
X81726Y-62661D01*
X81579Y-62600D01*
X81420Y-62599D01*
X81273Y-62660D01*
X81184Y-62750D01*
X79500Y-62750D01*
X79500Y-60900D01*
X79424Y-60717D01*
X79283Y-60576D01*
X79099Y-60500D01*
X79039Y-60500D01*
X79339Y-60500D01*
X79413Y-60469D01*
X79469Y-60413D01*
X79499Y-60339D01*
X79500Y-60260D01*
X79500Y-59660D01*
X79469Y-59586D01*
X79413Y-59530D01*
X79339Y-59500D01*
X79260Y-59499D01*
X78660Y-59499D01*
X78586Y-59530D01*
X78530Y-59586D01*
X78500Y-59660D01*
X78499Y-59739D01*
X78499Y-60339D01*
X78530Y-60413D01*
X78586Y-60469D01*
X78660Y-60499D01*
X78739Y-60500D01*
X78900Y-60500D01*
X78717Y-60575D01*
X78576Y-60716D01*
X78500Y-60900D01*
X78499Y-61099D01*
X78575Y-61282D01*
X78716Y-61423D01*
X78900Y-61499D01*
X79099Y-61500D01*
X79282Y-61424D01*
X79423Y-61283D01*
X79499Y-61099D01*
X79500Y-60900D01*
X79500Y-62750D01*
X79500Y-62750D01*
X79500Y-62660D01*
X79469Y-62586D01*
X79413Y-62530D01*
X79339Y-62500D01*
X79260Y-62499D01*
X78660Y-62499D01*
X78586Y-62530D01*
X78530Y-62586D01*
X78500Y-62660D01*
X78499Y-62739D01*
X78499Y-63339D01*
X78530Y-63413D01*
X78586Y-63469D01*
X78660Y-63499D01*
X78739Y-63500D01*
X78900Y-63500D01*
X78717Y-63575D01*
X78576Y-63716D01*
X78500Y-63900D01*
X78499Y-64099D01*
X78575Y-64282D01*
X78716Y-64423D01*
X78900Y-64499D01*
X79099Y-64500D01*
X79132Y-64486D01*
X79287Y-64640D01*
X79287Y-64640D01*
X79368Y-64694D01*
X79368Y-64694D01*
X79463Y-64713D01*
X87036Y-64713D01*
X87131Y-64694D01*
X87212Y-64640D01*
X87453Y-64399D01*
X87579Y-64400D01*
X87726Y-64339D01*
X87749Y-64315D01*
X87773Y-64338D01*
X87920Y-64399D01*
X88079Y-64400D01*
X88226Y-64339D01*
X88249Y-64315D01*
X88273Y-64338D01*
X88420Y-64399D01*
X88579Y-64400D01*
X88726Y-64339D01*
X88838Y-64226D01*
X88899Y-64079D01*
X88900Y-63920D01*
X88839Y-63773D01*
X88815Y-63750D01*
X88838Y-63726D01*
X88899Y-63579D01*
X88900Y-63420D01*
X88839Y-63273D01*
X88815Y-63250D01*
X88838Y-63226D01*
X88899Y-63079D01*
X88900Y-62920D01*
X88839Y-62773D01*
X88726Y-62661D01*
X88579Y-62600D01*
X88420Y-62599D01*
X88273Y-62660D01*
X88250Y-62684D01*
X88226Y-62661D01*
X88079Y-62600D01*
X87920Y-62599D01*
X87773Y-62660D01*
X87750Y-62684D01*
X87726Y-62661D01*
X87595Y-62606D01*
X87817Y-62385D01*
X88255Y-61329D01*
X88401Y-61390D01*
X88598Y-61390D01*
X88780Y-61315D01*
X88919Y-61175D01*
X88995Y-60993D01*
X88995Y-60796D01*
X88920Y-60614D01*
X88805Y-60499D01*
X88919Y-60385D01*
X88995Y-60203D01*
X88995Y-60006D01*
X88982Y-59975D01*
X89676Y-59281D01*
X89676Y-59281D01*
X89676Y-59281D01*
X89698Y-59250D01*
X89799Y-59250D01*
X89799Y-59339D01*
X89830Y-59413D01*
X89886Y-59469D01*
X89960Y-59499D01*
X90039Y-59500D01*
X90839Y-59500D01*
X90913Y-59469D01*
X90924Y-59457D01*
X90936Y-59469D01*
X91010Y-59499D01*
X91089Y-59500D01*
X91889Y-59500D01*
X91963Y-59469D01*
X91974Y-59457D01*
X91986Y-59469D01*
X92060Y-59499D01*
X92139Y-59500D01*
X92939Y-59500D01*
X93013Y-59469D01*
X93027Y-59455D01*
X93273Y-59701D01*
X93098Y-59701D01*
X93024Y-59731D01*
X92968Y-59788D01*
X92959Y-59808D01*
X92939Y-59800D01*
X92860Y-59799D01*
X92060Y-59799D01*
X91986Y-59830D01*
X91975Y-59842D01*
X91963Y-59830D01*
X91889Y-59800D01*
X91810Y-59799D01*
X91010Y-59799D01*
X90936Y-59830D01*
X90925Y-59842D01*
X90913Y-59830D01*
X90839Y-59800D01*
X90760Y-59799D01*
X89960Y-59799D01*
X89886Y-59830D01*
X89830Y-59886D01*
X89800Y-59960D01*
X89799Y-60039D01*
X89799Y-60639D01*
X89830Y-60713D01*
X89886Y-60769D01*
X89960Y-60799D01*
X90039Y-60800D01*
X90839Y-60800D01*
X90913Y-60769D01*
X90924Y-60757D01*
X90936Y-60769D01*
X91010Y-60799D01*
X91089Y-60800D01*
X91889Y-60800D01*
X91963Y-60769D01*
X91974Y-60757D01*
X91986Y-60769D01*
X92036Y-60790D01*
X91973Y-60853D01*
X91918Y-60935D01*
X91899Y-61030D01*
X91899Y-61987D01*
X91918Y-62083D01*
X91973Y-62164D01*
X92035Y-62226D01*
X92116Y-62281D01*
X92212Y-62300D01*
X92286Y-62300D01*
X92252Y-62381D01*
X92252Y-62449D01*
X91850Y-62449D01*
X91850Y-61850D01*
X91850Y-61149D01*
X91849Y-61050D01*
X91811Y-60958D01*
X91741Y-60887D01*
X91649Y-60849D01*
X91412Y-60850D01*
X91350Y-60912D01*
X91350Y-61450D01*
X91787Y-61450D01*
X91850Y-61387D01*
X91850Y-61149D01*
X91850Y-61850D01*
X91850Y-61612D01*
X91787Y-61550D01*
X91350Y-61550D01*
X91350Y-62087D01*
X91412Y-62150D01*
X91649Y-62150D01*
X91741Y-62112D01*
X91811Y-62041D01*
X91849Y-61949D01*
X91850Y-61850D01*
X91850Y-62449D01*
X91560Y-62449D01*
X91486Y-62480D01*
X91449Y-62517D01*
X91413Y-62480D01*
X91339Y-62450D01*
X91311Y-62450D01*
X91317Y-62437D01*
X91317Y-62288D01*
X91260Y-62150D01*
X91223Y-62113D01*
X91250Y-62087D01*
X91250Y-61550D01*
X91250Y-61450D01*
X91250Y-60912D01*
X91187Y-60850D01*
X90950Y-60849D01*
X90858Y-60887D01*
X90788Y-60958D01*
X90750Y-61050D01*
X90749Y-61149D01*
X90750Y-61387D01*
X90812Y-61450D01*
X91250Y-61450D01*
X91250Y-61550D01*
X90812Y-61550D01*
X90750Y-61612D01*
X90749Y-61850D01*
X90750Y-61949D01*
X90780Y-62023D01*
X90730Y-62044D01*
X90624Y-62149D01*
X90567Y-62287D01*
X90567Y-62436D01*
X90572Y-62449D01*
X90460Y-62449D01*
X90386Y-62480D01*
X90330Y-62536D01*
X90300Y-62610D01*
X90299Y-62689D01*
X90299Y-63289D01*
X90330Y-63363D01*
X90386Y-63419D01*
X90460Y-63449D01*
X90539Y-63450D01*
X91339Y-63450D01*
X91413Y-63419D01*
X91450Y-63382D01*
X91486Y-63419D01*
X91560Y-63449D01*
X91639Y-63450D01*
X92439Y-63450D01*
X92513Y-63419D01*
X92569Y-63363D01*
X92599Y-63289D01*
X92600Y-63210D01*
X92600Y-63190D01*
X92645Y-63180D01*
X92726Y-63126D01*
X92781Y-63045D01*
X92800Y-62950D01*
X92800Y-62791D01*
X92839Y-62774D01*
X92945Y-62669D01*
X92948Y-62662D01*
X92968Y-62711D01*
X93006Y-62750D01*
X92968Y-62788D01*
X92937Y-62861D01*
X92937Y-62941D01*
X92937Y-63138D01*
X92968Y-63211D01*
X93024Y-63267D01*
X93097Y-63298D01*
X93177Y-63298D01*
X94752Y-63298D01*
X94825Y-63268D01*
X94843Y-63250D01*
X94862Y-63250D01*
X94958Y-63230D01*
X95039Y-63176D01*
X95093Y-63095D01*
X95112Y-63000D01*
X95112Y-62603D01*
X95214Y-62501D01*
X96087Y-62501D01*
X96087Y-62638D01*
X96117Y-62711D01*
X96156Y-62750D01*
X96117Y-62788D01*
X96087Y-62861D01*
X96087Y-62941D01*
X96087Y-63138D01*
X96117Y-63211D01*
X96173Y-63267D01*
X96247Y-63298D01*
X96327Y-63298D01*
X97899Y-63298D01*
X97899Y-63539D01*
X97930Y-63613D01*
X97986Y-63669D01*
X98060Y-63699D01*
X98139Y-63700D01*
X98939Y-63700D01*
X98979Y-63683D01*
X99008Y-63711D01*
X99100Y-63749D01*
X99199Y-63750D01*
X99437Y-63750D01*
X99500Y-63687D01*
X99500Y-63250D01*
X99492Y-63250D01*
X99492Y-63150D01*
X99500Y-63150D01*
X99500Y-62712D01*
X99437Y-62650D01*
X99199Y-62649D01*
X99100Y-62650D01*
X99008Y-62688D01*
X98979Y-62716D01*
X98939Y-62700D01*
X98860Y-62699D01*
X98740Y-62699D01*
X98730Y-62654D01*
X98676Y-62573D01*
X98595Y-62518D01*
X98507Y-62501D01*
X99997Y-62501D01*
X100196Y-62699D01*
X100160Y-62699D01*
X100120Y-62716D01*
X100091Y-62688D01*
X99999Y-62650D01*
X99900Y-62649D01*
X99662Y-62650D01*
X99600Y-62712D01*
X99600Y-63150D01*
X99607Y-63150D01*
X99607Y-63250D01*
X99600Y-63250D01*
X99600Y-63687D01*
X99662Y-63750D01*
X99900Y-63750D01*
X99999Y-63749D01*
X100091Y-63711D01*
X100120Y-63683D01*
X100160Y-63699D01*
X100239Y-63700D01*
X101039Y-63700D01*
X101079Y-63683D01*
X101108Y-63711D01*
X101200Y-63749D01*
X101299Y-63750D01*
X101537Y-63750D01*
X101600Y-63687D01*
X101600Y-63250D01*
X101592Y-63250D01*
X101592Y-63150D01*
X101600Y-63150D01*
X101600Y-62712D01*
X101537Y-62650D01*
X101299Y-62649D01*
X101200Y-62650D01*
X101108Y-62688D01*
X101079Y-62716D01*
X101039Y-62700D01*
X100960Y-62699D01*
X100840Y-62699D01*
X100830Y-62654D01*
X100830Y-62654D01*
X100776Y-62573D01*
X100776Y-62573D01*
X100278Y-62074D01*
X100197Y-62020D01*
X100101Y-62001D01*
X98062Y-62001D01*
X98062Y-61861D01*
X98031Y-61788D01*
X98028Y-61785D01*
X98074Y-61740D01*
X98112Y-61648D01*
X98112Y-61611D01*
X98049Y-61549D01*
X97124Y-61549D01*
X97124Y-61557D01*
X97024Y-61557D01*
X97024Y-61549D01*
X96099Y-61549D01*
X96069Y-61579D01*
X95920Y-61429D01*
X95920Y-61116D01*
X95960Y-61176D01*
X96041Y-61230D01*
X96094Y-61241D01*
X96075Y-61259D01*
X96037Y-61351D01*
X96037Y-61388D01*
X96099Y-61450D01*
X97024Y-61450D01*
X97024Y-61442D01*
X97124Y-61442D01*
X97124Y-61450D01*
X97952Y-61450D01*
X98070Y-61499D01*
X98219Y-61499D01*
X98357Y-61442D01*
X98463Y-61337D01*
X98520Y-61199D01*
X98520Y-61050D01*
X98463Y-60912D01*
X98358Y-60807D01*
X98262Y-60767D01*
X98262Y-60500D01*
X98243Y-60404D01*
X98189Y-60323D01*
X98107Y-60269D01*
X98012Y-60250D01*
X97993Y-60250D01*
X97993Y-60249D01*
X98031Y-60211D01*
X98062Y-60138D01*
X98062Y-60058D01*
X98062Y-59861D01*
X98031Y-59788D01*
X97975Y-59732D01*
X97902Y-59701D01*
X97822Y-59701D01*
X97324Y-59701D01*
X97324Y-57012D01*
X97305Y-56916D01*
X97305Y-56916D01*
X97251Y-56835D01*
X96608Y-56192D01*
X96691Y-56175D01*
X96853Y-56067D01*
X96961Y-55905D01*
X97000Y-55713D01*
X97038Y-55905D01*
X97146Y-56067D01*
X97308Y-56175D01*
X97500Y-56213D01*
X97691Y-56175D01*
X97853Y-56067D01*
X97961Y-55905D01*
X98000Y-55713D01*
X98038Y-55905D01*
X98146Y-56067D01*
X98308Y-56175D01*
X98500Y-56213D01*
X98691Y-56175D01*
X98853Y-56067D01*
X98961Y-55905D01*
X99000Y-55713D01*
X99038Y-55905D01*
X99146Y-56067D01*
X99308Y-56175D01*
X99500Y-56213D01*
X99691Y-56175D01*
X99853Y-56067D01*
X99961Y-55905D01*
X100000Y-55713D01*
X100038Y-55905D01*
X100146Y-56067D01*
X100308Y-56175D01*
X100500Y-56213D01*
X100691Y-56175D01*
X100853Y-56067D01*
X100961Y-55905D01*
X101000Y-55713D01*
X101038Y-55905D01*
X101146Y-56067D01*
X101308Y-56175D01*
X101500Y-56213D01*
X101691Y-56175D01*
X101853Y-56067D01*
X101961Y-55905D01*
X102000Y-55713D01*
X102038Y-55905D01*
X102146Y-56067D01*
X102308Y-56175D01*
X102500Y-56213D01*
X102691Y-56175D01*
X102853Y-56067D01*
X102961Y-55905D01*
X103000Y-55713D01*
X103000Y-55286D01*
X102961Y-55094D01*
X102853Y-54932D01*
X102691Y-54824D01*
X102500Y-54786D01*
X102308Y-54824D01*
X102146Y-54932D01*
X102038Y-55094D01*
X102000Y-55286D01*
X101961Y-55094D01*
X101853Y-54932D01*
X101691Y-54824D01*
X101500Y-54786D01*
X101308Y-54824D01*
X101146Y-54932D01*
X101038Y-55094D01*
X101000Y-55286D01*
X100961Y-55094D01*
X100853Y-54932D01*
X100691Y-54824D01*
X100500Y-54786D01*
X100308Y-54824D01*
X100146Y-54932D01*
X100038Y-55094D01*
X100000Y-55286D01*
X99961Y-55094D01*
X99853Y-54932D01*
X99691Y-54824D01*
X99500Y-54786D01*
X99308Y-54824D01*
X99146Y-54932D01*
X99038Y-55094D01*
X99000Y-55286D01*
X98961Y-55094D01*
X98853Y-54932D01*
X98691Y-54824D01*
X98500Y-54786D01*
X98308Y-54824D01*
X98146Y-54932D01*
X98038Y-55094D01*
X98000Y-55286D01*
X97961Y-55094D01*
X97853Y-54932D01*
X97691Y-54824D01*
X97500Y-54786D01*
X97308Y-54824D01*
X97146Y-54932D01*
X97038Y-55094D01*
X97000Y-55286D01*
X96961Y-55094D01*
X96853Y-54932D01*
X96691Y-54824D01*
X96500Y-54786D01*
X96308Y-54824D01*
X96146Y-54932D01*
X96038Y-55094D01*
X96000Y-55286D01*
X95961Y-55094D01*
X95853Y-54932D01*
X95691Y-54824D01*
X95500Y-54786D01*
X95308Y-54824D01*
X95146Y-54932D01*
X95038Y-55094D01*
X95000Y-55286D01*
X95000Y-55713D01*
X95038Y-55905D01*
X95101Y-55999D01*
X94350Y-55999D01*
X94290Y-56011D01*
X94361Y-55905D01*
X94400Y-55713D01*
X94400Y-55286D01*
X94361Y-55094D01*
X94253Y-54932D01*
X94091Y-54824D01*
X93900Y-54786D01*
X93708Y-54824D01*
X93546Y-54932D01*
X93438Y-55094D01*
X93400Y-55286D01*
X93361Y-55094D01*
X93253Y-54932D01*
X93091Y-54824D01*
X92900Y-54786D01*
X92708Y-54824D01*
X92546Y-54932D01*
X92438Y-55094D01*
X92400Y-55286D01*
X92361Y-55094D01*
X92253Y-54932D01*
X92091Y-54824D01*
X91900Y-54786D01*
X91708Y-54824D01*
X91546Y-54932D01*
X91438Y-55094D01*
X91400Y-55286D01*
X91361Y-55094D01*
X91253Y-54932D01*
X91091Y-54824D01*
X90900Y-54786D01*
X90708Y-54824D01*
X90546Y-54932D01*
X90438Y-55094D01*
X90400Y-55286D01*
X90361Y-55094D01*
X90253Y-54932D01*
X90091Y-54824D01*
X89900Y-54786D01*
X89708Y-54824D01*
X89546Y-54932D01*
X89438Y-55094D01*
X89400Y-55286D01*
X89361Y-55094D01*
X89253Y-54932D01*
X89091Y-54824D01*
X88900Y-54786D01*
X88708Y-54824D01*
X88546Y-54932D01*
X88438Y-55094D01*
X88424Y-55163D01*
X88388Y-55043D01*
X88253Y-54875D01*
X88064Y-54772D01*
X88035Y-54766D01*
X87950Y-54815D01*
X87950Y-55450D01*
X87957Y-55450D01*
X87957Y-55550D01*
X87950Y-55550D01*
X87950Y-56184D01*
X88035Y-56233D01*
X88064Y-56227D01*
X88253Y-56124D01*
X88388Y-55956D01*
X88424Y-55836D01*
X88438Y-55905D01*
X88546Y-56067D01*
X88708Y-56175D01*
X88900Y-56213D01*
X89091Y-56175D01*
X89253Y-56067D01*
X89361Y-55905D01*
X89400Y-55713D01*
X89438Y-55905D01*
X89546Y-56067D01*
X89708Y-56175D01*
X89900Y-56213D01*
X90091Y-56175D01*
X90253Y-56067D01*
X90361Y-55905D01*
X90400Y-55713D01*
X90438Y-55905D01*
X90546Y-56067D01*
X90708Y-56175D01*
X90900Y-56213D01*
X91091Y-56175D01*
X91253Y-56067D01*
X91361Y-55905D01*
X91400Y-55713D01*
X91438Y-55905D01*
X91546Y-56067D01*
X91708Y-56175D01*
X91900Y-56213D01*
X92091Y-56175D01*
X92253Y-56067D01*
X92361Y-55905D01*
X92400Y-55713D01*
X92438Y-55905D01*
X92546Y-56067D01*
X92708Y-56175D01*
X92900Y-56213D01*
X93091Y-56175D01*
X93253Y-56067D01*
X93361Y-55905D01*
X93400Y-55713D01*
X93438Y-55905D01*
X93546Y-56067D01*
X93708Y-56175D01*
X93900Y-56213D01*
X94065Y-56180D01*
X92600Y-57646D01*
X92600Y-57610D01*
X92569Y-57536D01*
X92513Y-57480D01*
X92439Y-57450D01*
X92360Y-57449D01*
X91760Y-57449D01*
X91686Y-57480D01*
X91630Y-57536D01*
X91600Y-57610D01*
X91599Y-57689D01*
X91599Y-58489D01*
X91604Y-58499D01*
X91295Y-58499D01*
X91299Y-58489D01*
X91300Y-58410D01*
X91300Y-57610D01*
X91269Y-57536D01*
X91213Y-57480D01*
X91139Y-57450D01*
X91060Y-57449D01*
X90460Y-57449D01*
X90386Y-57480D01*
X90330Y-57536D01*
X90300Y-57610D01*
X90300Y-57646D01*
X89119Y-56466D01*
X89038Y-56412D01*
X88943Y-56393D01*
X87850Y-56393D01*
X87850Y-56184D01*
X87850Y-55550D01*
X87842Y-55550D01*
X87842Y-55450D01*
X87850Y-55450D01*
X87850Y-54815D01*
X87764Y-54766D01*
X87735Y-54772D01*
X87546Y-54875D01*
X87411Y-55043D01*
X87375Y-55163D01*
X87361Y-55094D01*
X87253Y-54932D01*
X87091Y-54824D01*
X86900Y-54786D01*
X86708Y-54824D01*
X86546Y-54932D01*
X86438Y-55094D01*
X86400Y-55286D01*
X86400Y-55713D01*
X86438Y-55905D01*
X86546Y-56067D01*
X86708Y-56175D01*
X86900Y-56213D01*
X87091Y-56175D01*
X87253Y-56067D01*
X87361Y-55905D01*
X87375Y-55836D01*
X87411Y-55956D01*
X87546Y-56124D01*
X87735Y-56227D01*
X87764Y-56233D01*
X87850Y-56184D01*
X87850Y-56393D01*
X83891Y-56393D01*
X84051Y-56327D01*
X84326Y-56053D01*
X84474Y-55694D01*
X84475Y-55306D01*
X84327Y-54948D01*
X84053Y-54673D01*
X83754Y-54550D01*
X104450Y-54550D01*
X104450Y-61245D01*
X104327Y-60948D01*
X104053Y-60673D01*
X103694Y-60525D01*
X103306Y-60524D01*
X102948Y-60672D01*
X102673Y-60946D01*
X102525Y-61305D01*
X102524Y-61693D01*
X102672Y-62051D01*
X102946Y-62326D01*
X103305Y-62474D01*
X103693Y-62475D01*
X104051Y-62327D01*
X104326Y-62053D01*
X104450Y-61754D01*
X104450Y-72245D01*
X104327Y-71948D01*
X104053Y-71673D01*
X103694Y-71525D01*
X103306Y-71524D01*
X102948Y-71672D01*
X102673Y-71946D01*
X102525Y-72305D01*
X102524Y-72693D01*
X102672Y-73051D01*
X102946Y-73326D01*
X103305Y-73474D01*
X103693Y-73475D01*
X104051Y-73327D01*
X104326Y-73053D01*
X104450Y-72754D01*
X104450Y-75450D01*
M02*
